# This file uses centimeters as units for non-parametric coordinates.

mtllib Ijsblok-groot-1.mtl
g default
v -57.061989 -6.309838 15.515900
v -43.181648 -6.309838 18.804962
v -57.726532 -1.325235 14.693871
v -42.170700 -1.325235 17.083054
v -56.469994 -0.500657 -1.373283
v -40.553925 -0.500657 -2.158783
v -56.860344 -6.309838 -2.429649
v -40.095947 -6.309838 -3.665520
v -59.463356 -1.080180 9.659767
v -40.084480 -1.080180 9.659767
v -40.101070 -6.309838 10.010315
v -59.676201 -6.309838 10.032486
v -56.611977 -6.309838 8.743011
v -37.440849 -6.309838 8.328087
v -37.790215 -1.051798 8.208954
v -56.737801 -1.051798 8.512810
v -51.890953 -6.309838 15.415970
v -49.488480 -6.309838 9.659767
v -48.200676 -6.309838 9.080940
v -49.432541 -6.309838 -4.099579
v -49.369980 -0.500657 -4.157707
v -51.008011 -0.205493 9.507317
v -51.537659 -0.158447 12.869743
v -52.059601 -1.325235 15.603241
v -48.606468 -6.309838 9.659767
v -48.958633 -6.309838 17.839645
v -48.847755 -1.325235 17.759056
v -45.192463 -0.348436 14.426071
v -41.055946 0.147745 7.933266
v -46.903141 -0.500657 -3.262909
v -46.792656 -6.309838 -3.263023
v -47.445801 -6.309838 9.080940
v -55.824593 -6.309838 2.436729
v -47.869762 -6.309838 2.903549
v -47.147552 -6.309838 2.903549
v -37.985176 -6.309838 1.165321
v -38.259659 -0.748888 2.031563
v -46.249626 0.280017 2.903542
v -51.463505 -0.748888 2.903542
v -56.037437 -0.748888 2.903542
vt 0.456320 0.187113
vt 0.438798 0.093951
vt 0.505888 0.076713
vt 0.521125 0.161771
vt 0.470315 0.305727
vt 0.463313 0.243769
vt 0.583885 0.222112
vt 0.655434 0.343474
vt 0.488173 0.637275
vt 0.494065 0.542651
vt 0.538680 0.538074
vt 0.536090 0.646956
vt 0.461311 0.877447
vt 0.486081 0.869615
vt 0.500036 0.871080
vt 0.477528 0.879333
vt 0.779935 0.193206
vt 0.788165 0.097057
vt 0.845627 0.104256
vt 0.829414 0.199877
vt 0.202899 0.245004
vt 0.179548 0.151044
vt 0.238961 0.136645
vt 0.255644 0.231621
vt 0.618304 0.068994
vt 0.639990 0.167953
vt 0.405850 0.977689
vt 0.454991 1.027902
vt 0.347711 0.112042
vt 0.349984 0.204532
vt 0.505230 0.758731
vt 0.518542 0.759735
vt 0.975251 0.129952
vt 0.940121 0.227473
vt 0.555642 0.428982
vt 0.456034 0.425756
vt 0.104633 0.279486
vt 0.067324 0.183775
vt 0.273479 0.862721
vt 0.310736 0.968742
vt 0.332202 0.845457
vt 0.357995 0.730163
vt 0.363440 0.515933
vt 0.354267 0.632728
vt 0.361517 0.321144
vt 0.371464 0.429133
vt 0.313002 0.296663
vt 0.633283 0.901783
vt 0.559130 1.056871
vt 0.680261 0.308570
vt 0.719461 0.341699
vt 0.702776 0.457486
vt 0.654243 0.533370
vt 0.659780 0.648949
vt 0.689493 0.742484
vt 0.685687 0.875817
vt 1.069862 0.151243
vt 1.024554 0.252267
vt -0.020295 0.210221
vt 0.030224 0.306637
vn -0.299402 0.030118 0.953651
vn -0.305502 0.029334 0.951740
vn -0.254049 0.112517 0.960624
vn -0.248579 0.114252 0.961850
vn -0.062102 0.998068 0.001841
vn -0.069783 0.991876 0.106364
vn 0.055113 0.989002 0.137254
vn 0.113038 0.993086 0.031659
vn -0.138546 0.070854 -0.987818
vn -0.135456 0.070391 -0.988280
vn 0.133585 0.092206 -0.986739
vn 0.130945 0.093501 -0.986971
vn 0.000000 -1.000000 0.000000
vn 0.000000 -1.000000 -0.000000
vn 0.000000 -1.000000 -0.000000
vn 0.000000 -1.000000 0.000000
vn 0.878091 -0.009832 0.478394
vn 0.888353 -0.012688 0.458987
vn 0.972386 0.068177 0.223199
vn 0.973202 0.068144 0.219624
vn -0.901080 -0.039858 -0.431816
vn -0.891928 -0.040470 -0.450363
vn -0.995493 -0.019807 -0.092739
vn -0.984959 -0.023370 -0.171201
vn -0.108090 0.965997 0.234874
vn -0.013119 0.967989 0.250649
vn 0.952402 -0.034352 0.302902
vn 0.952402 -0.034351 0.302902
vn 0.000000 -1.000000 -0.000000
vn 0.000000 -1.000000 0.000000
vn -0.924011 0.003862 0.382348
vn -0.924011 0.003862 0.382348
vn 0.000000 -1.000000 -0.000000
vn 0.000000 -1.000000 -0.000000
vn 0.961786 0.105742 -0.252560
vn 0.968630 0.099786 -0.227593
vn -0.020744 0.999339 -0.029869
vn -0.065256 0.997867 0.001841
vn -0.999827 -0.018612 -0.000193
vn -0.999794 -0.017830 0.009664
vn 0.000000 -1.000000 -0.000000
vn 0.000000 -1.000000 -0.000000
vn 0.000000 -1.000000 0.000000
vn 0.000000 -1.000000 -0.000000
vn -0.291864 0.093165 -0.951912
vn -0.291864 0.093165 -0.951912
vn -0.091653 0.994559 -0.049527
vn -0.034626 0.999328 0.012015
vn -0.117956 0.989210 0.086895
vn -0.125458 0.972469 0.196379
vn -0.074356 0.057177 0.995591
vn -0.074356 0.057177 0.995591
vn 0.000000 -1.000000 -0.000000
vn 0.000000 -1.000000 0.000000
vn -0.022844 0.180364 0.983335
vn -0.022844 0.180364 0.983335
vn 0.147585 0.970812 0.189057
vn 0.325094 0.888628 0.323504
vn 0.225053 0.974324 0.006691
vn 0.136576 0.988515 -0.064699
vn 0.053241 0.130997 -0.989952
vn 0.053241 0.130997 -0.989952
vn 0.000000 -1.000000 -0.000000
vn 0.000000 -1.000000 -0.000000
vn 0.000000 -1.000000 0.000000
vn 0.000000 -1.000000 0.000000
vn 0.000000 -1.000000 -0.000000
vn 0.000000 -1.000000 -0.000000
vn 0.890390 0.147252 -0.430725
vn 0.890389 0.147252 -0.430725
vn -0.031409 0.997542 -0.062633
vn 0.072542 0.994778 -0.071789
vn -0.068274 0.997600 -0.011565
vn 0.010810 0.998914 0.045323
vn -0.987358 -0.005805 0.158402
vn -0.987358 -0.005805 0.158402
s 1
g polySurface1118 polySurface989
usemtl lambert4SG
f 24/1/1 17/2/2 26/3/3 27/4/4
s 2
f 22/5/5 23/6/6 28/7/7 29/8/8
s 3
f 20/9/9 21/10/10 30/11/11 31/12/12
s 4
f 18/13/13 19/14/14 32/15/15 25/16/16
s 5
f 10/17/17 11/18/18 14/19/19 15/20/20
s 6
f 16/21/21 13/22/22 12/23/23 9/24/24
s 2
f 23/6/6 24/1/25 27/4/26 28/7/7
s 5
f 2/25/27 11/18/18 10/17/17 4/26/28
s 4
f 17/27/29 18/13/13 25/16/16 26/28/30
s 6
f 9/24/24 12/23/23 1/29/31 3/30/32
s 4
f 19/14/14 34/31/33 35/32/34 32/15/15
s 5
f 15/20/20 14/19/19 36/33/35 37/34/36
s 2
f 38/35/37 39/36/38 22/5/5 29/8/8
s 6
f 40/37/39 33/38/40 13/22/22 16/21/21
s 4
f 12/39/41 18/13/13 17/27/29 1/40/42
f 13/41/43 19/14/14 18/13/13 12/39/41
f 33/42/44 34/31/33 19/14/14 13/41/43
s 3
f 5/43/45 21/10/10 20/9/9 7/44/46
s 2
f 16/45/47 22/5/5 39/36/38 40/46/48
f 9/47/49 23/6/6 22/5/5 16/45/47
f 3/30/50 24/1/25 23/6/6 9/47/49
s 1
f 1/29/51 17/2/2 24/1/1 3/30/52
s 4
f 26/28/30 25/16/16 11/48/53 2/49/54
s 1
f 27/4/4 26/3/3 2/25/55 4/26/56
s 2
f 28/7/7 27/4/26 4/26/57 10/50/58
f 29/8/8 28/7/7 10/50/58 15/51/59
f 37/52/60 38/35/37 29/8/8 15/51/59
s 3
f 31/12/12 30/11/11 6/53/61 8/54/62
s 4
f 32/15/15 35/32/34 36/55/63 14/56/64
f 25/16/16 32/15/15 14/56/64 11/48/53
f 7/44/65 20/9/66 34/31/33 33/42/44
f 35/32/34 34/31/33 20/9/66 31/12/67
f 36/55/63 35/32/34 31/12/67 8/54/68
s 5
f 37/34/36 36/33/35 8/57/69 6/58/70
s 2
f 30/11/71 38/35/37 37/52/60 6/53/72
f 21/10/73 39/36/38 38/35/37 30/11/71
f 40/46/48 39/36/38 21/10/73 5/43/74
s 6
f 7/59/75 33/38/40 40/37/39 5/60/76
