# This file uses centimeters as units for non-parametric coordinates.

mtllib Tree-Small-1.mtl
g default
v 7.268518 1.654213 0.703427
v 8.675373 1.654213 0.703427
v 7.744899 4.719700 0.227046
v 8.198991 4.719700 0.227046
v 7.744899 4.719700 -0.227046
v 8.198991 4.719700 -0.227046
v 7.268518 1.654213 -0.703427
v 8.675373 1.654213 -0.703427
v 7.825597 -0.118246 0.146349
v 8.118294 -0.118246 0.146349
v 7.825597 1.596241 0.146349
v 8.118294 1.596241 0.146349
v 7.825597 1.596241 -0.146349
v 8.118294 1.596241 -0.146349
v 7.825597 -0.118246 -0.146349
v 8.118294 -0.118246 -0.146349
v 7.088430 1.596697 0.862643
v 8.896338 1.596697 0.862643
v 7.245380 2.171469 0.705693
v 8.739388 2.171469 0.705693
v 7.245380 2.171469 -0.031270
v 8.739388 2.171469 -0.031270
v 7.088430 1.596697 -0.188220
v 8.896338 1.596697 -0.188220
v 7.377310 3.464966 0.594636
v 8.566581 3.464966 0.594636
v 7.710966 4.856161 0.260980
v 8.232925 4.856161 0.260980
v 7.710966 4.856161 -0.260980
v 8.232925 4.856161 -0.260980
v 7.377310 3.464966 -0.594636
v 8.566581 3.464966 -0.594636
v 7.949748 3.464966 0.594636
v 8.376609 3.464966 -0.594636
v 8.149548 4.856161 -0.260980
v 8.149548 4.856161 0.260980
v 7.549137 3.464966 0.594636
v 7.549137 3.464966 -0.594636
v 7.786379 4.856161 -0.260980
v 7.786379 4.856161 0.260980
v 7.710966 4.856161 -0.191742
v 7.786379 4.856161 -0.191742
v 8.149548 4.856161 -0.191742
v 8.232925 4.856161 -0.191742
v 8.566581 3.464966 -0.436879
v 8.376609 3.464966 -0.436879
v 7.549137 3.464966 -0.436879
v 7.377310 3.464966 -0.436879
v 7.710966 4.856161 0.181527
v 7.786379 4.856161 0.181527
v 8.149548 4.856161 0.181527
v 8.232925 4.856161 0.181527
v 8.566581 3.464966 -0.097498
v 7.949748 3.464966 -0.097498
v 7.549137 3.464966 0.413604
v 7.377310 3.464966 0.413604
v 7.836373 2.412908 -0.593465
v 7.382235 2.412908 -0.593465
v 7.382235 2.412908 -0.751222
v 7.836373 2.412908 -0.751222
v 7.210407 2.412908 -0.751222
v 7.210407 2.412908 -0.593465
v 7.382235 2.657837 0.446962
v 7.210407 2.657837 0.446962
v 8.143224 2.890768 0.635614
v 8.143224 2.890768 0.349598
v 8.633764 2.890768 0.349598
v 8.633764 2.890768 0.635614
v 7.577471 2.151351 0.718380
v 7.968110 2.151351 0.718380
v 7.577471 2.356022 0.673967
v 7.968110 2.356022 0.673967
v 7.577471 2.356022 0.425674
v 7.968110 2.356022 0.425674
v 7.577471 2.151351 0.425674
v 7.968110 2.151351 0.425674
v 8.054410 1.896599 -0.484694
v 8.347116 1.896599 -0.484694
v 8.054410 2.189306 -0.484694
v 8.347116 2.189306 -0.484694
v 8.054410 2.189306 -0.732458
v 8.347116 2.189306 -0.732458
v 8.054410 1.896599 -0.777400
v 8.347116 1.896599 -0.777400
v 8.510876 2.296040 -0.052933
v 8.651901 2.296040 -0.052933
v 8.510876 2.437066 -0.052933
v 8.632945 2.437066 -0.052933
v 8.510876 2.437066 -0.193958
v 8.632945 2.437066 -0.193958
v 8.510876 2.296040 -0.193958
v 8.651901 2.296040 -0.193958
vt 0.581411 0.213816
vt 0.801404 0.380382
vt 0.543676 0.074720
vt 0.317978 0.855840
vt 0.162589 0.767058
vt 0.371529 0.929344
vt 0.654258 0.138857
vt 0.963999 0.602412
vt 0.760651 0.315127
vt 0.936922 0.208735
vt 0.329150 0.110803
vt 0.617944 0.029894
vt 0.246038 0.800611
vt 0.059498 0.077480
vt 0.830529 0.032464
vt 0.662770 0.104162
vt 0.073389 0.755628
vt 0.588503 0.148988
vt 0.374847 0.025491
vt 0.539622 0.024783
vt 0.539622 0.982802
vt 0.374847 0.983509
vt 0.756321 0.225621
vt 0.900909 0.225621
vt 0.900909 0.370209
vt 0.756321 0.370209
vt 0.209019 0.984312
vt 0.043599 0.983688
vt 0.047955 0.025679
vt 0.211197 0.026298
vt 0.750884 0.034635
vt 0.913093 0.034635
vt 0.913093 0.196844
vt 0.750884 0.196844
vt 0.703990 0.024757
vt 0.703990 0.982776
vt 0.129605 0.572439
vt 0.460612 0.572816
vt 0.431559 0.708574
vt 0.158023 0.708263
vt 0.156539 0.708826
vt 0.430793 0.707395
vt 0.429788 0.827131
vt 0.156591 0.826719
vt 0.155921 0.827937
vt 0.429456 0.828248
vt 0.457875 0.964071
vt 0.126868 0.963694
vt 0.129860 0.398433
vt 0.460867 0.398917
vt 0.460553 0.571242
vt 0.129546 0.570758
vt 0.547907 0.698496
vt 0.545355 0.867641
vt 0.040341 0.856182
vt 0.039879 0.692294
vt 0.210686 0.987444
vt 0.139783 0.691547
vt 0.269108 0.679038
vt 0.228166 0.985753
vt 0.121395 0.126216
vt 0.121455 0.111296
vt 0.139423 0.111368
vt 0.139363 0.126288
vt 0.651260 0.686726
vt 0.707298 0.974894
vt 0.690411 0.975480
vt 0.612783 0.688061
vt 0.425450 0.308577
vt 0.405507 0.288289
vt 0.426073 0.276432
vt 0.442058 0.295651
vt 0.496488 0.979204
vt 0.546857 0.653892
vt 0.582631 0.653316
vt 0.512189 0.978951
vt 0.508276 0.257433
vt 0.539391 0.260978
vt 0.555516 0.548672
vt 0.541861 0.547113
vt 0.372737 0.117303
vt 0.310885 0.088483
vt 0.326269 0.070439
vt 0.390079 0.104010
vt 0.818856 0.680914
vt 0.780854 0.972343
vt 0.043133 0.125903
vt 0.043192 0.110982
vt 0.134544 0.994809
vt 0.055791 0.699671
vt 0.308238 0.053865
vt 0.293581 0.070426
vt 0.796128 0.971814
vt 0.853658 0.679707
vt 0.026941 0.110917
vt 0.026881 0.125838
vt 0.019766 0.703156
vt 0.118733 0.996338
vt 0.027263 0.030478
vt 0.043515 0.030543
vt 0.121777 0.030857
vt 0.139745 0.030929
vt 0.411845 0.980565
vt 0.469898 0.655130
vt 0.396673 0.344013
vt 0.315804 0.298353
vt 0.207964 0.288656
vt 0.308218 0.238995
vt 0.181586 0.173682
vt 0.161413 0.161119
vt 0.707131 0.280154
vt 0.629136 0.557080
vt 0.027332 0.013356
vt 0.043583 0.013421
vt 0.121846 0.013735
vt 0.139814 0.013807
vt 0.312948 0.657655
vt 0.393828 0.980855
vt 0.269300 0.426987
vt 0.298173 0.400793
vt 0.351428 0.440885
vt 0.324085 0.473419
vt 0.190896 0.310366
vt 0.226381 0.350615
vt 0.181873 0.280687
vt 0.170856 0.300337
vt 0.742836 0.284231
vt 0.644807 0.558869
vt 0.753209 0.467501
vt 0.845190 0.464311
vt 0.879992 0.463104
vt 0.501263 0.043818
vt 0.532379 0.047355
vt 0.732311 0.118368
vt 0.301546 0.526709
vt 0.366404 0.525666
vt 0.168673 0.566931
vt 0.271519 0.556984
vt 0.108349 0.123395
vt 0.259193 0.122802
vt 0.258667 0.224514
vt 0.107824 0.225107
vt 0.259901 0.311346
vt 0.108576 0.310961
vt 0.260538 0.411952
vt 0.109212 0.411566
vt 0.109168 0.023050
vt 0.260493 0.023435
vt 0.357825 0.136786
vt 0.342378 0.236018
vt 0.008883 0.137595
vt 0.023568 0.236943
vt 0.131547 0.024235
vt 0.232003 0.023872
vt 0.232366 0.124329
vt 0.131909 0.124691
vt 0.232672 0.209361
vt 0.132216 0.209723
vt 0.233039 0.310994
vt 0.132583 0.311357
vt 0.233402 0.411451
vt 0.132945 0.411813
vt 0.332459 0.023510
vt 0.317398 0.124022
vt 0.031090 0.024597
vt 0.046877 0.124998
vt 0.133412 0.016920
vt 0.233551 0.015755
vt 0.221255 0.116051
vt 0.134577 0.117059
vt 0.222420 0.216190
vt 0.135741 0.217198
vt 0.237045 0.316172
vt 0.136906 0.317337
vt 0.238209 0.416311
vt 0.138070 0.417476
vt 0.332952 0.027941
vt 0.320657 0.128237
vt 0.033273 0.018084
vt 0.034438 0.118223
vn 0.000000 0.153558 0.988140
vn 0.000000 0.153558 0.988140
vn 0.000000 0.153558 0.988140
vn 0.000000 0.153558 0.988140
vn 0.000000 1.000000 0.000000
vn 0.000000 1.000000 0.000000
vn 0.000000 1.000000 0.000000
vn 0.000000 1.000000 0.000000
vn 0.000000 0.153558 -0.988140
vn 0.000000 0.153558 -0.988140
vn 0.000000 0.153558 -0.988140
vn 0.000000 0.153558 -0.988140
vn 0.000000 -1.000000 0.000000
vn 0.000000 -1.000000 0.000000
vn 0.000000 -1.000000 0.000000
vn 0.000000 -1.000000 0.000000
vn 0.988140 0.153558 0.000000
vn 0.988140 0.153558 0.000000
vn 0.988140 0.153558 0.000000
vn 0.988140 0.153558 0.000000
vn -0.988140 0.153558 0.000000
vn -0.988140 0.153558 0.000000
vn -0.988140 0.153558 0.000000
vn -0.988140 0.153558 0.000000
vn 0.000000 0.000000 1.000000
vn 0.000000 0.000000 1.000000
vn 0.000000 0.000000 1.000000
vn 0.000000 0.000000 1.000000
vn 0.000000 1.000000 0.000000
vn 0.000000 1.000000 0.000000
vn 0.000000 1.000000 0.000000
vn 0.000000 1.000000 0.000000
vn 0.000000 0.000000 -1.000000
vn 0.000000 0.000000 -1.000000
vn 0.000000 0.000000 -1.000000
vn 0.000000 0.000000 -1.000000
vn 0.000000 -1.000000 0.000000
vn 0.000000 -1.000000 0.000000
vn 0.000000 -1.000000 0.000000
vn 0.000000 -1.000000 0.000000
vn 1.000000 0.000000 0.000000
vn 1.000000 0.000000 0.000000
vn 1.000000 0.000000 0.000000
vn 1.000000 0.000000 0.000000
vn -1.000000 0.000000 0.000000
vn -1.000000 0.000000 0.000000
vn -1.000000 0.000000 0.000000
vn -1.000000 0.000000 0.000000
vn 0.000000 0.263420 0.964681
vn 0.000000 0.263420 0.964681
vn 0.000000 0.263420 0.964681
vn 0.000000 0.263420 0.964681
vn 0.000000 1.000000 0.000000
vn 0.000000 1.000000 0.000000
vn 0.000000 1.000000 0.000000
vn 0.000000 1.000000 0.000000
vn 0.000000 0.263420 -0.964681
vn 0.000000 0.263420 -0.964681
vn 0.000000 0.263420 -0.964681
vn 0.000000 0.263420 -0.964681
vn 0.000000 -1.000000 0.000000
vn 0.000000 -1.000000 0.000000
vn 0.000000 -1.000000 0.000000
vn 0.000000 -1.000000 0.000000
vn 0.964681 0.263420 0.000000
vn 0.964681 0.263420 0.000000
vn 0.964681 0.263420 0.000000
vn 0.964681 0.263420 0.000000
vn -0.964681 0.263420 0.000000
vn -0.964681 0.263420 0.000000
vn -0.964681 0.263420 0.000000
vn -0.964681 0.263420 0.000000
vn 0.000000 0.233220 0.972424
vn 0.000000 0.233220 0.972424
vn 0.000000 0.233220 0.972424
vn 0.000000 0.233220 0.972424
vn 0.000000 1.000000 0.000000
vn 0.000000 1.000000 0.000000
vn 0.000000 1.000000 0.000000
vn 0.000000 1.000000 0.000000
vn 0.000000 0.233220 -0.972424
vn 0.000000 0.233220 -0.972424
vn 0.000000 0.233220 -0.972424
vn 0.000000 0.233220 -0.972424
vn 0.000000 -1.000000 -0.000001
vn 0.000000 -1.000000 -0.000000
vn 0.000000 -1.000000 0.000000
vn 0.000000 -1.000000 0.000000
vn 0.972424 0.233220 0.000000
vn 0.972424 0.233220 0.000000
vn 0.972424 0.233220 0.000000
vn 0.972424 0.233220 0.000000
vn -0.972424 0.233220 0.000000
vn -0.972424 0.233220 0.000000
vn -0.972424 0.233220 0.000000
vn -0.972424 0.233220 0.000000
vn 0.000000 -1.000000 0.000000
vn 0.000000 -0.988696 0.149932
vn 0.000000 -1.000000 0.000000
vn 0.000000 -1.000000 0.000000
vn 0.000000 0.233220 -0.972424
vn 0.000000 0.233220 -0.972424
vn 0.000000 1.000000 0.000000
vn 0.000000 1.000000 0.000000
vn 0.000000 0.233220 0.972424
vn 0.000000 0.233220 0.972424
vn 0.000000 -1.000000 0.000000
vn 0.000000 -0.979740 0.200276
vn 0.000000 0.233220 -0.972424
vn 0.000000 0.233220 -0.972424
vn 0.000000 1.000000 0.000000
vn 0.000000 1.000000 0.000000
vn 0.000000 0.233220 0.972424
vn 0.000000 0.233220 0.972424
vn 0.000000 1.000000 0.000000
vn 0.000000 1.000000 0.000000
vn 0.000000 1.000000 0.000000
vn 0.000000 1.000000 0.000000
vn 0.972424 0.233220 0.000000
vn 0.972424 0.233220 0.000000
vn 0.000000 -1.000000 -0.000001
vn 0.000000 -1.000000 -0.000000
vn 0.000000 -1.000000 0.000000
vn 0.000000 -1.000000 0.000000
vn 0.000000 -0.973392 0.229148
vn 0.000000 -0.973392 0.229148
vn -0.972424 0.233220 0.000000
vn -0.972424 0.233220 0.000000
vn 0.000000 1.000000 0.000000
vn 0.000000 1.000000 0.000000
vn 0.000000 1.000000 0.000000
vn 0.000000 1.000000 0.000000
vn 0.972424 0.233220 0.000000
vn 0.972424 0.233220 0.000000
vn 0.000000 -1.000000 0.000000
vn 0.000000 -1.000000 0.000000
vn 0.000000 -1.000000 0.000000
vn 0.000000 -1.000000 0.000000
vn 0.000000 -1.000000 0.000000
vn 0.000000 -1.000000 0.000000
vn 0.000000 -1.000000 0.000000
vn 0.000000 -1.000000 0.000000
vn -0.972424 0.233220 0.000000
vn -0.972424 0.233220 0.000000
vn 0.000000 -0.147216 0.989104
vn 0.000000 -0.147217 0.989104
vn 0.000000 -0.147216 0.989104
vn 0.000000 -0.147216 0.989104
vn 0.000000 0.147216 -0.989104
vn 0.000000 0.147216 -0.989104
vn 0.000000 0.147216 -0.989104
vn 0.000000 0.147216 -0.989104
vn 0.889570 -0.456798 0.000000
vn 0.889570 -0.456798 0.000000
vn 0.889570 -0.456798 0.000000
vn 0.889570 -0.456798 0.000000
vn 0.000000 0.147216 -0.989104
vn 0.000000 0.147216 -0.989104
vn 0.000000 0.147216 -0.989104
vn 0.000000 0.147216 -0.989104
vn -0.987649 0.156684 0.000000
vn -0.987649 0.156684 0.000000
vn -0.987649 0.156684 0.000000
vn -0.987649 0.156684 0.000000
vn 0.983732 -0.178152 0.023076
vn 0.983732 -0.178152 0.023076
vn 0.983732 -0.178152 0.023076
vn 0.983732 -0.178152 0.023076
vn 0.000000 0.041295 0.999147
vn 0.000000 0.041295 0.999147
vn 0.000000 0.041295 0.999147
vn 0.000000 0.041295 0.999147
vn -0.983732 0.178152 -0.023076
vn -0.983732 0.178152 -0.023076
vn -0.983732 0.178152 -0.023076
vn -0.983732 0.178152 -0.023076
vn -0.947650 -0.319311 0.000000
vn -0.947650 -0.319311 0.000000
vn -0.947650 -0.319311 0.000000
vn -0.947650 -0.319311 0.000000
vn 0.000000 -0.614366 -0.789021
vn 0.000000 -0.614366 -0.789021
vn 0.000000 -0.614366 -0.789021
vn 0.000000 -0.614366 -0.789021
vn 0.993225 0.116210 0.000000
vn 0.993225 0.116210 0.000000
vn 0.993225 0.116210 0.000000
vn 0.993225 0.116210 0.000000
vn 0.000000 0.071185 0.997463
vn 0.000000 0.071185 0.997463
vn 0.000000 0.071185 0.997463
vn 0.000000 0.071185 0.997463
vn 0.000000 0.212063 0.977256
vn 0.000000 0.212063 0.977256
vn 0.000000 0.212063 0.977256
vn 0.000000 0.212063 0.977256
vn 0.000000 1.000000 0.000000
vn 0.000000 1.000000 0.000000
vn 0.000000 1.000000 0.000000
vn 0.000000 1.000000 0.000000
vn 0.000000 0.000000 -1.000000
vn 0.000000 0.000000 -1.000000
vn 0.000000 0.000000 -1.000000
vn 0.000000 0.000000 -1.000000
vn 0.000000 -1.000000 0.000000
vn 0.000000 -1.000000 0.000000
vn 0.000000 -1.000000 0.000000
vn 0.000000 -1.000000 0.000000
vn 1.000000 0.000000 0.000000
vn 1.000000 0.000000 0.000000
vn 1.000000 0.000000 0.000000
vn 1.000000 0.000000 0.000000
vn -1.000000 -0.000000 0.000000
vn -1.000000 -0.000000 0.000000
vn -1.000000 -0.000000 0.000000
vn -1.000000 -0.000000 0.000000
vn 0.000000 0.000000 1.000000
vn 0.000000 0.000000 1.000000
vn 0.000000 0.000000 1.000000
vn 0.000000 0.000000 1.000000
vn 0.000000 1.000000 0.000000
vn 0.000000 1.000000 0.000000
vn 0.000000 1.000000 0.000000
vn 0.000000 1.000000 0.000000
vn 0.000000 0.151762 -0.988417
vn 0.000000 0.151762 -0.988417
vn 0.000000 0.151762 -0.988417
vn 0.000000 0.151762 -0.988417
vn 0.000000 -1.000000 0.000000
vn 0.000000 -1.000000 0.000000
vn 0.000000 -1.000000 0.000000
vn 0.000000 -1.000000 0.000000
vn 1.000000 0.000000 0.000000
vn 1.000000 0.000000 0.000000
vn 1.000000 0.000000 0.000000
vn 1.000000 0.000000 0.000000
vn -1.000000 -0.000000 0.000000
vn -1.000000 -0.000000 0.000000
vn -1.000000 -0.000000 0.000000
vn -1.000000 -0.000000 0.000000
vn 0.000000 0.000000 1.000000
vn 0.000000 0.000000 1.000000
vn 0.000000 0.000000 1.000000
vn 0.000000 0.000000 1.000000
vn 0.000000 1.000000 0.000000
vn 0.000000 1.000000 0.000000
vn 0.000000 1.000000 0.000000
vn 0.000000 1.000000 0.000000
vn 0.000000 0.000000 -1.000000
vn 0.000000 0.000000 -1.000000
vn 0.000000 0.000000 -1.000000
vn 0.000000 0.000000 -1.000000
vn 0.000000 -1.000000 0.000000
vn 0.000000 -1.000000 0.000000
vn 0.000000 -1.000000 0.000000
vn 0.000000 -1.000000 0.000000
vn 0.991087 0.133216 0.000000
vn 0.991087 0.133216 0.000000
vn 0.991087 0.133216 0.000000
vn 0.991087 0.133216 0.000000
vn -1.000000 0.000000 0.000000
vn -1.000000 0.000000 0.000000
vn -1.000000 0.000000 0.000000
vn -1.000000 0.000000 0.000000
s off
g pCube30
usemtl initialShadingGroup
f 1/1/1 2/2/2 4/4/3 3/13/4
f 3/3/5 4/12/6 6/16/7 5/18/8
f 5/5/9 6/17/10 8/14/11 7/11/12
f 7/7/13 8/15/14 2/10/15 1/9/16
f 2/2/17 8/8/18 6/6/19 4/4/20
f 7/11/21 1/1/22 3/13/23 5/5/24
usemtl lambert2SG
f 9/19/25 10/20/26 12/21/27 11/22/28
f 11/23/29 12/24/30 14/25/31 13/26/32
f 13/27/33 14/28/34 16/29/35 15/30/36
f 15/31/37 16/32/38 10/33/39 9/34/40
f 10/20/41 16/35/42 14/36/43 12/21/44
f 15/30/45 9/19/46 11/22/47 13/27/48
usemtl lambert3SG
f 17/37/49 18/38/50 20/39/51 19/40/52
f 19/41/53 20/42/54 22/43/55 21/44/56
f 21/45/57 22/46/58 24/47/59 23/48/60
f 23/49/61 24/50/62 18/51/63 17/52/64
f 18/53/65 24/54/66 22/43/67 20/42/68
f 23/55/69 17/56/70 19/41/71 21/44/72
s 1
f 36/57/73 33/58/74 26/59/75 28/60/76
s 2
f 35/61/77 43/62/78 44/63/79 30/64/80
s 3
f 34/65/81 35/66/82 30/67/83 32/68/84
s 4
f 45/69/85 46/70/86 34/71/87 32/72/88
s 5
f 44/73/89 45/74/90 32/75/91 30/76/92
s 6
f 31/77/93 48/78/94 41/79/95 29/80/96
s 7
f 57/81/97 58/82/98 59/83/99 60/84/100
s 3
f 38/85/101 39/86/102 35/66/82 34/65/81
s 2
f 39/87/103 42/88/104 43/62/78 35/61/77
s 1
f 40/89/105 37/90/106 33/58/74 36/57/73
s 7
f 61/91/107 59/83/99 58/82/98 62/92/108
s 3
f 29/93/109 39/86/102 38/85/101 31/94/110
s 2
f 41/95/111 42/88/104 39/87/103 29/96/112
s 1
f 25/97/113 37/90/106 40/89/105 27/98/114
s 2
f 49/99/115 50/100/116 42/88/104 41/95/111
f 43/62/78 42/88/104 50/100/116 51/101/117
f 44/63/79 43/62/78 51/101/117 52/102/118
s 5
f 52/103/119 53/104/120 45/74/90 44/73/89
s 4
f 53/105/121 54/106/122 46/70/86 45/69/85
f 54/106/122 55/107/123 47/108/124 46/70/86
s 7
f 62/92/108 58/82/98 63/109/125 64/110/126
s 6
f 41/79/95 48/78/94 56/111/127 49/112/128
s 2
f 27/113/129 40/114/130 50/100/116 49/99/115
f 51/101/117 50/100/116 40/114/130 36/115/131
f 52/102/118 51/101/117 36/115/131 28/116/132
s 5
f 26/117/133 53/104/120 52/103/119 28/118/134
s off
f 65/119/135 66/120/136 67/121/137 68/122/138
s 4
f 37/123/139 55/107/123 54/106/122 33/124/140
f 56/125/141 55/107/123 37/123/139 25/126/142
s 6
f 49/112/128 56/111/127 25/127/143 27/128/144
s off
f 46/70/145 47/108/146 58/82/147 57/81/148
f 38/85/149 34/65/150 60/129/151 59/130/152
f 34/71/153 46/70/154 57/81/155 60/84/156
f 31/94/157 38/85/158 59/130/159 61/131/160
f 48/78/161 31/77/162 61/132/163 62/133/164
f 47/108/165 55/107/166 63/109/167 58/82/168
f 55/107/169 56/125/170 64/110/171 63/109/172
f 56/111/173 48/78/174 62/133/175 64/134/176
f 33/124/177 54/106/178 66/120/179 65/119/180
f 54/106/181 53/105/182 67/121/183 66/120/184
f 53/104/185 26/117/186 68/135/187 67/136/188
f 26/59/189 33/58/190 65/137/191 68/138/192
f 69/139/193 70/140/194 72/141/195 71/142/196
f 71/142/197 72/141/198 74/143/199 73/144/200
f 73/144/201 74/143/202 76/145/203 75/146/204
f 75/147/205 76/148/206 70/140/207 69/139/208
f 70/140/209 76/149/210 74/150/211 72/141/212
f 75/151/213 69/139/214 71/142/215 73/152/216
f 77/153/217 78/154/218 80/155/219 79/156/220
f 79/156/221 80/155/222 82/157/223 81/158/224
f 81/158/225 82/157/226 84/159/227 83/160/228
f 83/160/229 84/159/230 78/161/231 77/162/232
f 78/154/233 84/163/234 82/164/235 80/155/236
f 83/165/237 77/153/238 79/156/239 81/166/240
f 85/167/241 86/168/242 88/169/243 87/170/244
f 87/170/245 88/169/246 90/171/247 89/172/248
f 89/172/249 90/171/250 92/173/251 91/174/252
f 91/174/253 92/173/254 86/175/255 85/176/256
f 86/168/257 92/177/258 90/178/259 88/169/260
f 91/179/261 85/167/262 87/170/263 89/180/264
