# This file uses centimeters as units for non-parametric coordinates.

mtllib Tree-big-1.mtl
g default
v 12.250037 -0.361984 16.122694
v 11.178829 -0.361984 15.413034
v 12.250037 0.922968 16.122694
v 11.178829 0.922968 15.413034
v 11.540378 0.922968 17.193901
v 10.469170 0.922968 16.484242
v 11.540378 -0.361984 17.193901
v 10.469170 -0.361984 16.484242
v 13.278920 15.261802 15.913812
v 10.969948 15.261802 14.384151
v 12.052574 20.505599 16.162782
v 11.218918 20.505599 15.610498
v 11.500289 20.505599 16.996438
v 10.666633 20.505599 16.444153
v 11.749260 15.261802 18.222784
v 9.440287 15.261802 16.693124
v 11.573822 20.505599 16.885442
v 10.740167 20.505599 16.333157
v 9.643952 15.261802 16.385698
v 11.952925 15.261802 17.915359
v 11.285381 15.261802 14.593121
v 9.959385 15.261802 16.594668
v 9.755720 15.261802 16.902094
v 10.780521 20.505599 16.519602
v 10.854054 20.505599 16.408606
v 11.332805 20.505599 15.685946
v 11.972145 20.505599 16.284187
v 11.252376 20.505599 15.807351
v 11.138489 20.505599 15.731902
v 10.747184 15.261802 14.720405
v 11.062617 15.261802 14.929375
v 13.056157 15.261802 16.250065
v 12.940925 15.261802 15.689895
v 12.718162 15.261802 16.026149
v 11.614930 15.261802 17.691442
v 11.411265 15.261802 17.998868
v 11.378256 20.505599 16.915593
v 11.451789 20.505599 16.804596
v 11.850112 20.505599 16.203342
v 11.930540 20.505599 16.081937
v 12.473616 7.855866 18.059974
v 11.680287 8.422505 19.257478
v 9.586730 9.027230 17.870528
v 9.790395 9.027230 17.563102
v 12.451346 7.855866 14.234109
v 12.228583 7.855866 14.570363
v 11.768205 9.176870 14.265369
v 11.990968 9.176870 13.929115
v 14.228310 7.855866 15.411321
v 14.005547 7.855866 15.747575
v 14.343541 7.855866 15.971491
v 14.566304 7.855866 15.635238
v 12.811610 7.855866 18.283891
v 12.018282 8.422505 19.481395
v 15.485638 0.734414 15.465808
v 10.521943 0.734414 12.177432
v 11.845998 19.993173 16.204720
v 11.260857 19.993173 15.817073
v 11.458350 19.993173 16.789863
v 10.873209 19.993173 16.402215
v 12.197263 0.734414 20.429503
v 7.233568 0.734414 17.141127
v 14.158293 4.476470 17.557790
v 13.324637 4.476470 17.005506
v 13.955462 5.476470 17.423418
v 13.324637 5.476470 17.005506
v 13.403177 5.476470 18.257073
v 12.772353 5.476470 17.839161
v 13.606008 4.476470 18.391446
v 12.772353 4.476470 17.839161
v 13.684670 6.141344 14.729087
v 13.074040 6.141344 14.324554
v 13.613303 6.873816 14.836813
v 13.002674 6.873816 14.432280
v 13.280137 6.873816 15.339717
v 12.669507 6.873816 14.935184
v 13.280137 6.141344 15.339717
v 12.669507 6.141344 14.935184
v 14.078296 7.147105 15.181103
v 13.167444 7.147105 14.577677
v 13.991125 8.147105 15.312686
v 13.080272 8.147105 14.709259
v 13.526011 8.147105 16.014759
v 12.615159 8.147105 15.411333
v 13.526011 7.147105 16.014759
v 12.615159 7.147105 15.411333
v 10.028637 5.366149 14.821954
v 9.194981 5.366149 14.269669
v 10.028637 6.366149 14.821954
v 9.432277 6.366149 14.426874
v 9.476352 6.366149 15.655610
v 8.879992 6.366149 15.260530
v 9.476352 5.366149 15.655610
v 8.642697 5.366149 15.103325
v 16.258852 0.410602 15.186759
v 10.438989 0.410602 11.331186
v 15.661924 2.895268 15.201969
v 10.657763 2.895268 11.886786
v 13.342028 2.895268 18.703777
v 8.337867 2.895268 15.388594
v 13.560802 0.410602 19.259378
v 7.740939 0.410602 15.403804
v 10.793062 2.852636 19.981191
v 11.458097 2.852636 18.960840
v 10.919880 4.070581 19.786616
v 11.458097 4.070581 18.960840
v 8.253741 4.070581 18.048903
v 8.791959 4.070581 17.223127
v 8.126923 2.852636 18.243478
v 8.791959 2.852636 17.223127
vt 0.375000 0.000000
vt 0.625000 0.000000
vt 0.375000 0.250000
vt 0.625000 0.250000
vt 0.375000 0.500000
vt 0.625000 0.500000
vt 0.375000 0.750000
vt 0.625000 0.750000
vt 0.375000 1.000000
vt 0.625000 1.000000
vt 0.875000 0.000000
vt 0.875000 0.250000
vt 0.125000 0.000000
vt 0.125000 0.250000
vt 0.548353 0.992311
vt 0.627074 0.707300
vt 0.647718 0.710445
vt 0.555808 0.993433
vt 0.103052 0.281238
vt 0.104844 0.271075
vt 0.115272 0.272914
vt 0.113480 0.283077
vt 0.063443 0.698178
vt 0.133893 0.974552
vt 0.126680 0.975489
vt 0.043464 0.700775
vt 0.510296 0.195147
vt 0.499016 0.209315
vt 0.484480 0.197741
vt 0.495760 0.183574
vt 0.799641 0.977156
vt 0.863125 0.624023
vt 0.887782 0.625415
vt 0.808544 0.977659
vt 0.263044 0.695080
vt 0.282212 0.695014
vt 0.316887 0.971324
vt 0.309966 0.971347
vt 0.114551 0.216021
vt 0.124979 0.217859
vt 0.751416 0.974434
vt 0.729557 0.616483
vt 0.525313 0.038663
vt 0.541804 0.048240
vt 0.491242 0.135305
vt 0.474751 0.125728
vt 0.386045 0.694669
vt 0.354376 0.971198
vt 0.628360 0.098506
vt 0.577798 0.185571
vt 0.861009 0.374485
vt 0.847709 0.449139
vt 0.721276 0.438883
vt 0.722740 0.420833
vt 0.168298 0.684546
vt 0.171751 0.969632
vt 0.048320 0.271588
vt 0.050112 0.261424
vt 0.059819 0.206370
vt 0.509219 0.986429
vt 0.518670 0.691090
vt 0.061779 0.195254
vt 0.116511 0.204904
vt 0.126939 0.206743
vt 0.702587 0.614961
vt 0.741679 0.973884
vt 0.955921 0.069241
vt 0.941422 0.080932
vt 0.882262 0.056859
vt 0.892161 0.038345
vt 0.983090 0.172133
vt 0.964522 0.179849
vt 0.407011 0.694599
vt 0.361945 0.971172
vt 0.972207 0.198088
vt 0.990534 0.190499
vt 0.924963 0.377449
vt 0.907292 0.367187
vt 0.977502 0.246290
vt 0.995173 0.256552
vt 0.867310 0.452631
vt 0.880610 0.377977
vt 0.179480 0.968627
vt 0.189706 0.681765
vt 0.038938 0.259454
vt 0.037146 0.269617
vt 0.048645 0.204400
vt 0.050605 0.193283
vt 0.496538 0.687780
vt 0.501229 0.985228
vt 0.040989 0.362873
vt 0.169547 0.313998
vt 0.711460 0.435000
vt 0.585339 0.132867
vt 0.585451 0.065757
vt 0.585445 0.047163
vt 0.590284 0.027799
vt 0.887135 0.037662
vt 0.645522 0.293400
vt 0.666801 0.369505
vt 0.587717 0.165741
vt 0.529159 0.276081
vt 0.507026 0.272787
vt 0.433796 0.306599
vt 0.454762 0.306530
vt 0.289616 0.307074
vt 0.190954 0.311219
vt 0.214958 0.336546
vt 0.294498 0.027242
vt 0.554935 0.101050
vt 0.210630 0.952653
vt 0.178903 0.943186
vt 0.632648 0.077289
vt 0.652340 0.058613
vt 0.671015 0.078305
vt 0.651323 0.096981
vt 0.263059 0.990792
vt 0.239661 0.968585
vt 0.793014 0.231269
vt 0.986293 0.420613
vt 0.713820 0.166834
vt 0.718025 0.053372
vt 0.831487 0.057577
vt 0.827282 0.171039
vt 0.024608 0.032392
vt 0.146413 0.943723
vt 0.193454 0.493296
vt 0.307254 0.501339
vt 0.299211 0.615140
vt 0.213099 0.609053
vt 0.291168 0.728940
vt 0.205056 0.722854
vt 0.283125 0.842740
vt 0.169324 0.834697
vt 0.275081 0.956540
vt 0.161281 0.948497
vt 0.421054 0.509383
vt 0.413011 0.623183
vt 0.080978 0.512384
vt 0.100623 0.628141
vt 0.188144 0.505020
vt 0.301011 0.505498
vt 0.300527 0.620108
vt 0.187659 0.619631
vt 0.300134 0.713064
vt 0.187266 0.712587
vt 0.299657 0.825931
vt 0.186789 0.825454
vt 0.299179 0.938799
vt 0.186312 0.938321
vt 0.412080 0.525577
vt 0.392001 0.636645
vt 0.076910 0.524159
vt 0.096049 0.635393
vt 0.188262 0.505388
vt 0.300791 0.505832
vt 0.300342 0.619754
vt 0.187813 0.619311
vt 0.299968 0.714522
vt 0.187439 0.714079
vt 0.299525 0.827052
vt 0.186995 0.826608
vt 0.299081 0.939581
vt 0.186552 0.939137
vt 0.411875 0.523814
vt 0.393893 0.634898
vt 0.077039 0.522494
vt 0.094145 0.633717
vt 0.189674 0.496732
vt 0.304476 0.494005
vt 0.274525 0.609583
vt 0.192401 0.611533
vt 0.277251 0.724384
vt 0.195127 0.726335
vt 0.312655 0.838410
vt 0.197853 0.841136
vt 0.315381 0.953211
vt 0.200580 0.955938
vt 0.415638 0.522812
vt 0.385686 0.638390
vt 0.074873 0.499458
vt 0.077599 0.614260
vt 0.308994 0.078462
vt 0.719371 0.081060
vt 0.688057 0.254896
vt 0.335818 0.251576
vt 0.683848 0.406207
vt 0.332602 0.404939
vt 0.709024 0.581812
vt 0.300524 0.580336
vt 0.705582 0.756883
vt 0.297082 0.755408
vt 0.978333 0.172375
vt 0.911555 0.331961
vt 0.069411 0.132902
vt 0.131267 0.295848
vt 0.454061 0.187915
vt 0.577453 0.196488
vt 0.570888 0.315469
vt 0.464731 0.325707
vt 0.477485 0.475754
vt 0.203820 0.484406
vt 0.197290 0.365541
vt 0.066379 0.371057
vt 0.055906 0.252357
vt 0.181766 0.224076
vt 0.210322 0.033593
vt 0.427896 0.046767
vt 0.507406 0.634930
vt 0.245178 0.638284
vn 0.552285 0.000000 -0.833656
vn 0.552285 0.000000 -0.833656
vn 0.552285 0.000000 -0.833656
vn 0.552285 0.000000 -0.833656
vn 0.000000 1.000000 0.000000
vn 0.000000 1.000000 0.000000
vn 0.000000 1.000000 0.000000
vn 0.000000 1.000000 0.000000
vn -0.552285 0.000000 0.833656
vn -0.552285 0.000000 0.833656
vn -0.552285 0.000000 0.833656
vn -0.552285 0.000000 0.833656
vn 0.000000 -1.000000 -0.000000
vn 0.000000 -1.000000 -0.000000
vn 0.000000 -1.000000 -0.000000
vn 0.000000 -1.000000 -0.000000
vn -0.833656 0.000000 -0.552285
vn -0.833656 0.000000 -0.552285
vn -0.833656 0.000000 -0.552285
vn -0.833656 0.000000 -0.552285
vn 0.833656 0.000000 0.552285
vn 0.833656 0.000000 0.552285
vn 0.833656 0.000000 0.552285
vn 0.833656 0.000000 0.552285
vn 0.544586 0.166389 -0.822035
vn 0.544586 0.166390 -0.822035
vn 0.544586 0.166389 -0.822035
vn 0.544586 0.166389 -0.822035
vn 0.000000 1.000000 0.000000
vn 0.000000 1.000000 0.000000
vn 0.000000 1.000000 0.000000
vn 0.000000 1.000000 0.000000
vn -0.544586 0.166389 0.822035
vn -0.544586 0.166389 0.822035
vn -0.544586 0.166389 0.822035
vn -0.544586 0.166389 0.822035
vn 0.000000 -1.000000 -0.000000
vn 0.000000 -1.000000 -0.000000
vn 0.000000 -1.000000 -0.000000
vn 0.000000 -1.000000 -0.000000
vn -0.822035 0.166389 -0.544586
vn -0.822035 0.166389 -0.544586
vn -0.822035 0.166390 -0.544586
vn -0.822035 0.166390 -0.544586
vn 0.822035 0.166389 0.544586
vn 0.822035 0.166390 0.544586
vn 0.822035 0.166390 0.544586
vn 0.822035 0.166389 0.544586
vn 0.000000 1.000000 0.000000
vn 0.000000 1.000000 0.000000
vn -0.822035 0.166389 -0.544586
vn -0.822035 0.166389 -0.544586
vn 0.000000 -1.000000 -0.000000
vn 0.000000 -1.000000 -0.000000
vn 0.822035 0.166390 0.544586
vn 0.822035 0.166390 0.544586
vn 0.000000 -1.000000 -0.000000
vn 0.000000 -1.000000 -0.000000
vn -0.227549 -0.968144 0.104497
vn -0.347333 -0.927715 0.136767
vn -0.379628 -0.920249 0.094995
vn -0.379628 -0.920249 0.094995
vn -0.544586 0.166390 0.822035
vn -0.544586 0.166390 0.822035
vn 0.000000 1.000000 0.000000
vn 0.000000 1.000000 0.000000
vn 0.000000 1.000000 0.000000
vn 0.544586 0.166390 -0.822035
vn 0.544586 0.166390 -0.822035
vn 0.000000 1.000000 0.000000
vn 0.000000 1.000000 0.000000
vn 0.000000 1.000000 0.000000
vn -0.822035 0.166390 -0.544586
vn -0.822034 0.166390 -0.544586
vn -0.368159 -0.897202 -0.243900
vn -0.368159 -0.897202 -0.243900
vn -0.769151 -0.385700 -0.509551
vn -0.769151 -0.385700 -0.509551
vn 0.000000 -1.000000 -0.000000
vn 0.000000 -1.000000 -0.000000
vn 0.822035 0.166390 0.544586
vn 0.822035 0.166390 0.544586
vn 0.000000 -1.000000 -0.000000
vn 0.000000 -1.000000 -0.000000
vn -0.073665 -0.991065 0.111195
vn -0.202663 -0.930239 0.305913
vn -0.544586 0.166390 0.822035
vn -0.544586 0.166390 0.822035
vn 0.000000 1.000000 0.000000
vn 0.000000 1.000000 0.000000
vn 0.000000 1.000000 0.000000
vn 0.000000 1.000000 0.000000
vn 0.544586 0.166390 -0.822035
vn 0.544586 0.166390 -0.822035
vn -0.531377 0.138302 0.835770
vn -0.531377 0.138302 0.835770
vn -0.531377 0.138302 0.835770
vn -0.531377 0.138302 0.835770
vn -0.831996 -0.063066 -0.551185
vn -0.831996 -0.063066 -0.551185
vn -0.831996 -0.063066 -0.551185
vn -0.831996 -0.063066 -0.551185
vn 0.325667 -0.075905 -0.942433
vn 0.325667 -0.075905 -0.942433
vn 0.325667 -0.075905 -0.942433
vn 0.325667 -0.075905 -0.942433
vn -0.717381 -0.157247 0.678703
vn -0.717381 -0.157247 0.678703
vn -0.717381 -0.157247 0.678703
vn -0.717381 -0.157247 0.678703
vn -0.829634 -0.098107 -0.549620
vn -0.829634 -0.098107 -0.549620
vn -0.829634 -0.098107 -0.549620
vn -0.829634 -0.098107 -0.549620
vn 0.717381 0.157247 -0.678703
vn 0.717381 0.157247 -0.678703
vn 0.717381 0.157247 -0.678703
vn 0.717381 0.157247 -0.678703
vn -0.547859 -0.126342 0.826976
vn -0.547859 -0.126342 0.826975
vn -0.547859 -0.126342 0.826975
vn -0.547859 -0.126342 0.826975
vn 0.547859 0.126342 -0.826975
vn 0.547859 0.126342 -0.826975
vn 0.547859 0.126342 -0.826975
vn 0.547859 0.126342 -0.826975
vn 0.547859 0.126342 -0.826975
vn 0.547859 0.126342 -0.826975
vn 0.547859 0.126342 -0.826975
vn 0.547859 0.126342 -0.826975
vn 0.827305 0.123196 0.548078
vn 0.827305 0.123196 0.548078
vn 0.827305 0.123196 0.548078
vn 0.827305 0.123196 0.548078
vn -0.827305 -0.123196 -0.548078
vn -0.827305 -0.123196 -0.548078
vn -0.827305 -0.123196 -0.548078
vn -0.827305 -0.123196 -0.548078
vn 0.827305 0.123196 0.548078
vn 0.827305 0.123196 0.548078
vn 0.827305 0.123196 0.548078
vn 0.827305 0.123196 0.548078
vn -0.547557 0.130563 0.826520
vn -0.547557 0.130563 0.826520
vn -0.547557 0.130563 0.826520
vn -0.547557 0.130563 0.826520
vn 0.848192 0.125915 0.514505
vn 0.848192 0.125915 0.514505
vn 0.848192 0.125915 0.514505
vn 0.848192 0.125915 0.514505
vn 0.547221 0.135109 -0.826012
vn 0.547221 0.135109 -0.826012
vn 0.547221 0.135109 -0.826012
vn 0.547221 0.135109 -0.826012
vn 0.000000 1.000000 0.000000
vn 0.000000 1.000000 0.000000
vn 0.000000 1.000000 0.000000
vn 0.000000 1.000000 0.000000
vn -0.547221 0.135109 0.826012
vn -0.547221 0.135109 0.826012
vn -0.547221 0.135109 0.826012
vn -0.547221 0.135109 0.826012
vn 0.000000 -1.000000 -0.000000
vn 0.000000 -1.000000 -0.000000
vn 0.000000 -1.000000 -0.000000
vn 0.000000 -1.000000 -0.000000
vn -0.826012 0.135109 -0.547221
vn -0.826012 0.135109 -0.547221
vn -0.826012 0.135109 -0.547221
vn -0.826012 0.135109 -0.547221
vn 0.826012 0.135109 0.547221
vn 0.826012 0.135109 0.547221
vn 0.826012 0.135109 0.547221
vn 0.826012 0.135109 0.547221
vn 0.552285 0.000000 -0.833656
vn 0.552285 0.000000 -0.833656
vn 0.552285 0.000000 -0.833656
vn 0.552285 0.000000 -0.833656
vn 0.000000 1.000000 0.000000
vn 0.000000 1.000000 0.000000
vn 0.000000 1.000000 0.000000
vn 0.000000 1.000000 0.000000
vn -0.552285 0.000000 0.833656
vn -0.552285 0.000000 0.833656
vn -0.552285 0.000000 0.833656
vn -0.552285 0.000000 0.833656
vn 0.000000 -1.000000 -0.000000
vn 0.000000 -1.000000 -0.000000
vn 0.000000 -1.000000 -0.000000
vn 0.000000 -1.000000 -0.000000
vn -0.833656 0.000000 -0.552285
vn -0.833656 0.000000 -0.552285
vn -0.833656 0.000000 -0.552285
vn -0.833656 0.000000 -0.552285
vn 0.810025 0.236407 0.536630
vn 0.810025 0.236407 0.536630
vn 0.810025 0.236407 0.536630
vn 0.810025 0.236407 0.536630
vn 0.543886 0.173734 -0.820978
vn 0.543886 0.173734 -0.820978
vn 0.543886 0.173734 -0.820978
vn 0.543886 0.173734 -0.820978
vn 0.000000 1.000000 0.000000
vn 0.000000 1.000000 0.000000
vn 0.000000 1.000000 0.000000
vn 0.000000 1.000000 0.000000
vn -0.552285 0.000000 0.833656
vn -0.552285 0.000000 0.833656
vn -0.552285 0.000000 0.833656
vn -0.552285 0.000000 0.833656
vn 0.000000 -1.000000 -0.000000
vn 0.000000 -1.000000 -0.000000
vn 0.000000 -1.000000 -0.000000
vn 0.000000 -1.000000 -0.000000
vn -0.833656 -0.000000 -0.552285
vn -0.833656 -0.000000 -0.552285
vn -0.833656 -0.000000 -0.552285
vn -0.833656 -0.000000 -0.552285
vn 0.833656 -0.000001 0.552285
vn 0.833656 -0.000001 0.552285
vn 0.833656 -0.000001 0.552285
vn 0.833656 -0.000001 0.552285
vn 0.545531 0.155908 -0.823461
vn 0.545531 0.155908 -0.823461
vn 0.545531 0.155908 -0.823461
vn 0.545531 0.155908 -0.823461
vn 0.000000 1.000000 0.000000
vn 0.000000 1.000000 0.000000
vn 0.000000 1.000000 0.000000
vn 0.000000 1.000000 0.000000
vn -0.552285 0.000000 0.833656
vn -0.552285 0.000000 0.833656
vn -0.552285 0.000000 0.833656
vn -0.552285 0.000000 0.833656
vn 0.000000 -1.000000 -0.000000
vn 0.000000 -1.000000 -0.000000
vn 0.000000 -1.000000 -0.000000
vn 0.000000 -1.000000 -0.000000
vn -0.833656 -0.000000 -0.552285
vn -0.833656 -0.000000 -0.552285
vn -0.833656 -0.000000 -0.552285
vn -0.833656 -0.000000 -0.552285
vn 0.833656 0.000000 0.552285
vn 0.833656 0.000000 0.552285
vn 0.833656 0.000000 0.552285
vn 0.833656 0.000000 0.552285
vn 0.552285 0.000000 -0.833656
vn 0.552285 0.000000 -0.833656
vn 0.552285 0.000000 -0.833656
vn 0.552285 0.000000 -0.833656
vn 0.000000 1.000000 0.000000
vn 0.000000 1.000000 0.000000
vn 0.000000 1.000000 0.000000
vn 0.000000 1.000000 0.000000
vn -0.552285 0.000000 0.833656
vn -0.552285 0.000000 0.833656
vn -0.552285 0.000000 0.833656
vn -0.552285 0.000000 0.833656
vn 0.000000 -1.000000 -0.000000
vn 0.000000 -1.000000 -0.000000
vn 0.000000 -1.000000 -0.000000
vn 0.000000 -1.000000 -0.000000
vn -0.801806 0.273769 -0.531185
vn -0.801806 0.273769 -0.531185
vn -0.801806 0.273769 -0.531185
vn -0.801806 0.273769 -0.531185
vn 0.833656 0.000000 0.552285
vn 0.833656 0.000000 0.552285
vn 0.833656 0.000000 0.552285
vn 0.833656 0.000000 0.552285
vn 0.547115 0.136497 -0.825853
vn 0.547115 0.136497 -0.825853
vn 0.547115 0.136497 -0.825853
vn 0.547115 0.136497 -0.825853
vn 0.000000 1.000000 0.000000
vn 0.000000 1.000000 0.000000
vn 0.000000 1.000000 0.000000
vn 0.000000 1.000000 0.000000
vn -0.547116 0.136497 0.825853
vn -0.547115 0.136497 0.825853
vn -0.547115 0.136497 0.825853
vn -0.547115 0.136497 0.825853
vn 0.000000 -1.000000 -0.000000
vn 0.000000 -1.000000 -0.000000
vn 0.000000 -1.000000 -0.000000
vn 0.000000 -1.000000 -0.000000
vn -0.817951 0.193191 -0.541880
vn -0.817951 0.193191 -0.541880
vn -0.817951 0.193191 -0.541880
vn -0.817951 0.193191 -0.541880
vn 0.817950 0.193191 0.541880
vn 0.817950 0.193191 0.541880
vn 0.817950 0.193191 0.541880
vn 0.817950 0.193191 0.541880
vn 0.837765 0.000000 0.546031
vn 0.837765 0.000000 0.546031
vn 0.837765 0.000000 0.546031
vn 0.837765 0.000000 0.546031
vn 0.000000 1.000000 0.000000
vn 0.000000 1.000000 0.000000
vn 0.000000 1.000000 0.000000
vn 0.000000 1.000000 0.000000
vn -0.837765 -0.000000 -0.546031
vn -0.837765 -0.000000 -0.546031
vn -0.837765 -0.000000 -0.546031
vn -0.837765 -0.000000 -0.546031
vn 0.000000 -1.000000 -0.000000
vn 0.000000 -1.000000 -0.000000
vn 0.000000 -1.000000 -0.000000
vn 0.000000 -1.000000 -0.000000
vn 0.546031 0.000000 -0.837765
vn 0.546031 0.000000 -0.837765
vn 0.546031 0.000000 -0.837765
vn 0.546031 0.000000 -0.837765
vn -0.536366 0.187319 0.822936
vn -0.536366 0.187319 0.822936
vn -0.536366 0.187319 0.822936
vn -0.536366 0.187319 0.822936
s off
g pCube116
usemtl lambert2SG
f 1/1/1 2/2/2 4/4/3 3/3/4
f 3/3/5 4/4/6 6/6/7 5/5/8
f 5/5/9 6/6/10 8/8/11 7/7/12
f 7/7/13 8/8/14 2/10/15 1/9/16
f 2/2/17 8/11/18 6/12/19 4/4/20
f 7/13/21 1/1/22 3/3/23 5/14/24
s 1
usemtl lambert3SG
f 26/15/25 21/16/26 10/17/27 12/18/28
s 2
f 24/19/29 25/20/30 18/21/31 14/22/32
s 3
f 23/23/33 24/24/34 14/25/35 16/26/36
s 4
f 22/27/37 23/28/38 16/29/39 19/30/40
s 5
f 18/31/41 19/32/42 16/33/43 14/34/44
s 6
f 15/35/45 20/36/46 17/37/47 13/38/48
s 2
f 25/20/30 28/39/49 29/40/50 18/21/31
s 5
f 29/41/51 30/42/52 19/32/42 18/31/41
s 4
f 30/43/53 31/44/54 22/45/37 19/46/40
s 6
f 17/37/47 20/36/46 32/47/55 27/48/56
s 4
f 34/49/57 35/50/58 22/45/37 31/44/54
s 7
f 41/51/59 42/52/60 43/53/61 44/54/62
s 3
f 36/55/63 37/56/64 24/24/34 23/23/33
s 2
f 37/57/65 38/58/66 25/20/30 24/19/29
f 38/58/66 39/59/67 28/39/49 25/20/30
s 1
f 40/60/68 33/61/69 21/16/26 26/15/25
s 2
f 39/59/67 40/62/70 26/63/71 28/39/49
f 29/40/50 28/39/49 26/63/71 12/64/72
s 5
f 10/65/73 30/42/52 29/41/51 12/66/74
s 7
f 45/67/75 46/68/76 47/69/77 48/70/78
f 49/71/79 50/72/80 46/68/76 45/67/75
s 6
f 27/48/56 32/47/55 9/73/81 11/74/82
s 7
f 51/75/83 50/72/80 49/71/79 52/76/84
f 53/77/85 41/78/59 50/79/80 51/80/83
f 54/81/86 42/52/60 41/51/59 53/82/85
s 3
f 13/83/87 37/56/64 36/55/63 15/84/88
s 2
f 17/85/89 38/58/66 37/57/65 13/86/90
f 27/87/91 39/59/67 38/58/66 17/85/89
f 11/88/92 40/62/70 39/59/67 27/87/91
s 1
f 9/89/93 33/61/69 40/60/68 11/90/94
s off
f 36/55/95 23/23/96 43/91/97 42/92/98
f 23/28/99 22/27/100 44/54/101 43/93/102
f 22/27/103 35/94/104 41/51/105 44/54/106
f 31/95/107 30/96/108 47/69/109 46/68/110
f 30/96/111 10/97/112 48/98/113 47/69/114
f 10/17/115 21/16/116 45/99/117 48/100/118
f 34/101/119 31/95/120 46/68/121 50/72/122
f 21/16/123 33/61/124 49/102/125 45/99/126
f 33/61/127 9/89/128 52/103/129 49/102/130
f 9/73/131 32/47/132 51/104/133 52/105/134
f 35/50/135 34/49/136 50/79/137 41/78/138
f 32/47/139 20/36/140 53/106/141 51/104/142
f 15/84/143 36/55/144 42/92/145 54/107/146
f 20/36/147 15/35/148 54/108/149 53/106/150
usemtl initialShadingGroup
f 55/109/151 56/110/152 58/111/153 57/112/154
f 57/113/155 58/114/156 60/115/157 59/116/158
f 59/117/159 60/118/160 62/119/161 61/120/162
f 61/121/163 62/122/164 56/123/165 55/124/166
f 56/110/167 62/119/168 60/118/169 58/111/170
f 61/125/171 55/109/172 57/112/173 59/126/174
usemtl lambert3SG
f 63/127/175 64/128/176 66/129/177 65/130/178
f 65/130/179 66/129/180 68/131/181 67/132/182
f 67/132/183 68/131/184 70/133/185 69/134/186
f 69/134/187 70/133/188 64/135/189 63/136/190
f 64/128/191 70/137/192 68/138/193 66/129/194
f 69/139/195 63/127/196 65/130/197 67/140/198
f 71/141/199 72/142/200 74/143/201 73/144/202
f 73/144/203 74/143/204 76/145/205 75/146/206
f 75/146/207 76/145/208 78/147/209 77/148/210
f 77/148/211 78/147/212 72/149/213 71/150/214
f 72/142/215 78/151/216 76/152/217 74/143/218
f 77/153/219 71/141/220 73/144/221 75/154/222
f 79/155/223 80/156/224 82/157/225 81/158/226
f 81/158/227 82/157/228 84/159/229 83/160/230
f 83/160/231 84/159/232 86/161/233 85/162/234
f 85/162/235 86/161/236 80/163/237 79/164/238
f 80/156/239 86/165/240 84/166/241 82/157/242
f 85/167/243 79/155/244 81/158/245 83/168/246
f 87/169/247 88/170/248 90/171/249 89/172/250
f 89/172/251 90/171/252 92/173/253 91/174/254
f 91/174/255 92/173/256 94/175/257 93/176/258
f 93/176/259 94/175/260 88/177/261 87/178/262
f 88/170/263 94/179/264 92/180/265 90/171/266
f 93/181/267 87/169/268 89/172/269 91/182/270
f 95/183/271 96/184/272 98/185/273 97/186/274
f 97/186/275 98/185/276 100/187/277 99/188/278
f 99/188/279 100/187/280 102/189/281 101/190/282
f 101/190/283 102/189/284 96/191/285 95/192/286
f 96/184/287 102/193/288 100/194/289 98/185/290
f 101/195/291 95/183/292 97/186/293 99/196/294
f 103/197/295 104/198/296 106/199/297 105/200/298
f 105/200/299 106/201/300 108/202/301 107/203/302
f 107/203/303 108/204/304 110/205/305 109/206/306
f 109/206/307 110/207/308 104/208/309 103/197/310
f 104/209/311 110/210/312 108/202/313 106/201/314
f 109/206/315 103/197/316 105/200/317 107/203/318
