# This file uses centimeters as units for non-parametric coordinates.

mtllib Ijs-op-grond-4.mtl
g default
v 13.376833 0.060405 -21.090305
v 12.315784 -0.076387 -21.794445
v 11.307562 -0.076387 -21.084358
v 11.577352 -0.076387 -20.039497
v 12.920456 0.060405 -20.005692
v 13.093159 0.175637 -20.941597
v 12.316322 0.175637 -21.452843
v 11.629020 0.175637 -20.968773
v 11.812935 0.175637 -20.256493
v 12.782046 0.175637 -20.202209
v 12.991509 0.342966 -20.890324
v 12.345645 0.318073 -21.318935
v 11.794790 0.318073 -20.952511
v 11.900959 0.318073 -20.355122
v 12.719091 0.318073 -20.291603
v 12.623069 0.475232 -20.925030
v 12.356249 0.475232 -21.060299
v 11.986846 0.435438 -20.931442
v 12.022646 0.433305 -20.502155
v 12.478223 0.433305 -20.492992
v 12.263719 -0.301095 -20.797562
v 12.263719 0.519247 -20.797562
v 14.041373 0.075518 -21.422237
v 13.059147 -0.018798 -21.478874
v 12.662927 -0.018798 -20.612411
v 13.249863 -0.018798 -20.020271
v 14.159243 0.075518 -20.520775
v 13.910002 0.154969 -21.212532
v 13.192541 0.154969 -21.251141
v 12.922439 0.154969 -20.660473
v 13.322553 0.154969 -20.256813
v 13.990353 0.154969 -20.598003
v 13.862141 0.270340 -21.138737
v 13.264256 0.253176 -21.173210
v 13.039387 0.253176 -20.714180
v 13.342878 0.253176 -20.356907
v 13.913529 0.253176 -20.633137
v 13.602777 0.361535 -21.018406
v 13.372054 0.361535 -21.004757
v 13.175745 0.334097 -20.774914
v 13.366816 0.332627 -20.502407
v 13.674376 0.332627 -20.673714
v 13.412633 -0.173731 -20.793407
v 13.412633 0.391882 -20.793407
vt 0.151907 0.969027
vt 0.104975 0.862719
vt 0.145987 0.867467
vt 0.174067 0.946762
vt 0.164915 0.767053
vt 0.185772 0.802518
vt 0.264257 0.760667
vt 0.251501 0.798658
vt 0.329066 0.865743
vt 0.304316 0.868646
vt 0.294189 0.966039
vt 0.280188 0.937915
vt 0.165800 0.871835
vt 0.192177 0.935092
vt 0.193705 0.822568
vt 0.243903 0.816199
vt 0.285285 0.871373
vt 0.263773 0.924726
vt 0.194230 0.874785
vt 0.202572 0.900027
vt 0.201586 0.842390
vt 0.235210 0.834716
vt 0.255540 0.866834
vt 0.234086 0.900849
vt 0.046150 0.934765
vt 0.071925 0.774883
vt 0.207700 0.683628
vt 0.359387 0.769086
vt 0.401164 0.935609
vt 0.219571 0.866391
vt 0.151907 0.969027
vt 0.104975 0.862719
vt 0.145987 0.867467
vt 0.174067 0.946762
vt 0.164915 0.767053
vt 0.185772 0.802518
vt 0.264257 0.760667
vt 0.251501 0.798658
vt 0.329066 0.865743
vt 0.304316 0.868646
vt 0.294189 0.966039
vt 0.280188 0.937915
vt 0.165800 0.871835
vt 0.192177 0.935092
vt 0.193705 0.822568
vt 0.243903 0.816199
vt 0.285285 0.871373
vt 0.263773 0.924726
vt 0.194230 0.874785
vt 0.202572 0.900027
vt 0.201586 0.842390
vt 0.235210 0.834716
vt 0.255540 0.866834
vt 0.234086 0.900849
vt 0.046150 0.934765
vt 0.071925 0.774883
vt 0.207700 0.683628
vt 0.359387 0.769086
vt 0.401164 0.935609
vt 0.219571 0.866391
vn 0.255490 0.838808 -0.480756
vn 0.255490 0.838808 -0.480756
vn 0.255490 0.838808 -0.480756
vn 0.255490 0.838808 -0.480756
vn -0.385529 0.742784 -0.547393
vn -0.385529 0.742784 -0.547393
vn -0.385529 0.742784 -0.547393
vn -0.385529 0.742784 -0.547393
vn -0.644758 0.746037 0.166480
vn -0.644758 0.746037 0.166480
vn -0.644758 0.746037 0.166480
vn -0.644758 0.746037 0.166480
vn -0.069491 0.753933 0.653266
vn -0.069491 0.753933 0.653266
vn -0.069491 0.753933 0.653266
vn -0.069491 0.753933 0.653266
vn 0.453676 0.870481 0.190894
vn 0.453676 0.870481 0.190894
vn 0.453676 0.870481 0.190894
vn 0.453676 0.870481 0.190894
vn 0.460134 0.532255 -0.710620
vn 0.460134 0.532255 -0.710620
vn 0.460134 0.532255 -0.710620
vn 0.460134 0.532255 -0.710620
vn -0.437334 0.635126 -0.636674
vn -0.437334 0.635126 -0.636674
vn -0.437334 0.635126 -0.636674
vn -0.437334 0.635126 -0.636674
vn -0.714105 0.681936 0.158170
vn -0.714105 0.681936 0.158170
vn -0.714105 0.681936 0.158170
vn -0.714105 0.681936 0.158170
vn -0.054781 0.553385 0.831122
vn -0.054781 0.553385 0.831122
vn -0.054781 0.553385 0.831122
vn -0.054781 0.553385 0.831122
vn 0.804867 0.471967 0.359772
vn 0.804867 0.471967 0.359772
vn 0.804867 0.471967 0.359772
vn 0.804867 0.471967 0.359772
vn 0.306566 0.789925 -0.531071
vn 0.306566 0.789925 -0.531071
vn 0.306566 0.789924 -0.531071
vn 0.306566 0.789924 -0.531071
vn -0.321411 0.781745 -0.534387
vn -0.321411 0.781745 -0.534387
vn -0.321411 0.781745 -0.534387
vn -0.321411 0.781745 -0.534387
vn -0.572451 0.815943 0.080853
vn -0.572451 0.815943 0.080853
vn -0.572451 0.815943 0.080853
vn -0.572451 0.815943 0.080853
vn -0.031896 0.828573 0.558972
vn -0.031896 0.828573 0.558972
vn -0.031896 0.828573 0.558972
vn -0.031896 0.828573 0.558972
vn 0.307470 0.933405 0.184977
vn 0.307470 0.933405 0.184977
vn 0.307470 0.933405 0.184977
vn 0.307470 0.933405 0.184977
vn 0.254677 -0.946126 -0.199966
vn 0.254677 -0.946125 -0.199965
vn 0.254677 -0.946125 -0.199965
vn -0.158456 -0.961392 -0.224985
vn -0.158456 -0.961391 -0.224985
vn -0.158456 -0.961391 -0.224985
vn -0.246358 -0.967089 0.063611
vn -0.246358 -0.967089 0.063611
vn -0.246358 -0.967089 0.063611
vn 0.085948 -0.931331 0.353887
vn 0.085948 -0.931331 0.353887
vn 0.085948 -0.931331 0.353887
vn 0.339502 -0.929694 0.142853
vn 0.339502 -0.929694 0.142853
vn 0.339502 -0.929694 0.142853
vn 0.071166 0.987538 -0.140375
vn 0.071166 0.987538 -0.140375
vn 0.071166 0.987538 -0.140375
vn -0.181380 0.957496 -0.224281
vn -0.181380 0.957496 -0.224281
vn -0.181380 0.957496 -0.224281
vn -0.302840 0.952570 0.029987
vn -0.302840 0.952570 0.029987
vn -0.302840 0.952570 0.029987
vn -0.005535 0.961379 0.275174
vn -0.005535 0.961379 0.275174
vn -0.005535 0.961379 0.275174
vn 0.173275 0.972993 0.152516
vn 0.173275 0.972993 0.152516
vn 0.173275 0.972993 0.152516
vn -0.019954 0.865325 -0.500814
vn -0.019954 0.865325 -0.500814
vn -0.019954 0.865325 -0.500814
vn -0.019954 0.865325 -0.500814
vn -0.570014 0.779193 -0.260659
vn -0.570014 0.779193 -0.260659
vn -0.570014 0.779193 -0.260659
vn -0.570014 0.779193 -0.260659
vn -0.442506 0.782179 0.438617
vn -0.442506 0.782179 0.438617
vn -0.442506 0.782179 0.438617
vn -0.442506 0.782179 0.438617
vn 0.251609 0.789414 0.559927
vn 0.251609 0.789414 0.559927
vn 0.251609 0.789414 0.559927
vn 0.251609 0.789414 0.559927
vn 0.446699 0.892776 -0.058407
vn 0.446699 0.892776 -0.058407
vn 0.446699 0.892776 -0.058407
vn 0.446699 0.892776 -0.058407
vn 0.037860 0.575911 -0.816635
vn 0.037860 0.575911 -0.816635
vn 0.037860 0.575911 -0.816635
vn 0.037860 0.575911 -0.816635
vn -0.665176 0.677614 -0.313655
vn -0.665176 0.677614 -0.313655
vn -0.665176 0.677614 -0.313655
vn -0.665176 0.677614 -0.313655
vn -0.507686 0.722413 0.469439
vn -0.507686 0.722413 0.469439
vn -0.507686 0.722414 0.469439
vn -0.507686 0.722413 0.469439
vn 0.357880 0.597167 0.717854
vn 0.357880 0.597167 0.717854
vn 0.357880 0.597167 0.717854
vn 0.357880 0.597167 0.717854
vn 0.852541 0.514430 -0.092386
vn 0.852541 0.514430 -0.092386
vn 0.852541 0.514430 -0.092386
vn 0.852541 0.514430 -0.092386
vn -0.002716 0.822020 -0.569453
vn -0.002716 0.822020 -0.569453
vn -0.002716 0.822020 -0.569453
vn -0.002716 0.822020 -0.569453
vn -0.508667 0.814657 -0.278553
vn -0.508667 0.814657 -0.278553
vn -0.508667 0.814657 -0.278553
vn -0.508667 0.814657 -0.278553
vn -0.419366 0.845206 0.331299
vn -0.419366 0.845206 0.331299
vn -0.419366 0.845206 0.331299
vn -0.419366 0.845206 0.331299
vn 0.234465 0.856350 0.460099
vn 0.234465 0.856350 0.460099
vn 0.234465 0.856350 0.460099
vn 0.234465 0.856350 0.460099
vn 0.324474 0.945885 0.004318
vn 0.324474 0.945885 0.004318
vn 0.324474 0.945885 0.004318
vn 0.324474 0.945885 0.004318
vn 0.107495 -0.956388 -0.271602
vn 0.107495 -0.956388 -0.271602
vn 0.107495 -0.956388 -0.271602
vn -0.225077 -0.968890 -0.102924
vn -0.225077 -0.968890 -0.102924
vn -0.225077 -0.968890 -0.102924
vn -0.162339 -0.973526 0.160912
vn -0.162339 -0.973526 0.160912
vn -0.162339 -0.973526 0.160912
vn 0.228540 -0.944165 0.237322
vn 0.228540 -0.944165 0.237322
vn 0.228540 -0.944165 0.237322
vn 0.330529 -0.942806 -0.043218
vn 0.330529 -0.942806 -0.043218
vn 0.330529 -0.942806 -0.043218
vn -0.008316 0.990037 -0.140563
vn -0.008316 0.990037 -0.140563
vn -0.008316 0.990037 -0.140563
vn -0.242755 0.965710 -0.092056
vn -0.242755 0.965710 -0.092056
vn -0.242755 0.965710 -0.092056
vn -0.222025 0.961680 0.160865
vn -0.222025 0.961680 0.160865
vn -0.222025 0.961680 0.160865
vn 0.120449 0.968879 0.216254
vn 0.120449 0.968879 0.216254
vn 0.120449 0.968879 0.216254
vn 0.203268 0.978313 0.039823
vn 0.203268 0.978313 0.039823
vn 0.203268 0.978313 0.039823
s off
g polySurface1058
usemtl lambert4SG
f 1/1/1 2/2/2 7/3/3 6/4/4
f 2/2/5 3/5/6 8/6/7 7/3/8
f 3/5/9 4/7/10 9/8/11 8/6/12
f 4/7/13 5/9/14 10/10/15 9/8/16
f 5/9/17 1/11/18 6/12/19 10/10/20
f 6/4/21 7/3/22 12/13/23 11/14/24
f 7/3/25 8/6/26 13/15/27 12/13/28
f 8/6/29 9/8/30 14/16/31 13/15/32
f 9/8/33 10/10/34 15/17/35 14/16/36
f 10/10/37 6/12/38 11/18/39 15/17/40
f 11/14/41 12/13/42 17/19/43 16/20/44
f 12/13/45 13/15/46 18/21/47 17/19/48
f 13/15/49 14/16/50 19/22/51 18/21/52
f 14/16/53 15/17/54 20/23/55 19/22/56
f 15/17/57 11/18/58 16/24/59 20/23/60
f 2/2/61 1/1/62 21/25/63
f 3/5/64 2/2/65 21/26/66
f 4/7/67 3/5/68 21/27/69
f 5/9/70 4/7/71 21/28/72
f 1/11/73 5/9/74 21/29/75
f 16/20/76 17/19/77 22/30/78
f 17/19/79 18/21/80 22/30/81
f 18/21/82 19/22/83 22/30/84
f 19/22/85 20/23/86 22/30/87
f 20/23/88 16/24/89 22/30/90
f 23/31/91 24/32/92 29/33/93 28/34/94
f 24/32/95 25/35/96 30/36/97 29/33/98
f 25/35/99 26/37/100 31/38/101 30/36/102
f 26/37/103 27/39/104 32/40/105 31/38/106
f 27/39/107 23/41/108 28/42/109 32/40/110
f 28/34/111 29/33/112 34/43/113 33/44/114
f 29/33/115 30/36/116 35/45/117 34/43/118
f 30/36/119 31/38/120 36/46/121 35/45/122
f 31/38/123 32/40/124 37/47/125 36/46/126
f 32/40/127 28/42/128 33/48/129 37/47/130
f 33/44/131 34/43/132 39/49/133 38/50/134
f 34/43/135 35/45/136 40/51/137 39/49/138
f 35/45/139 36/46/140 41/52/141 40/51/142
f 36/46/143 37/47/144 42/53/145 41/52/146
f 37/47/147 33/48/148 38/54/149 42/53/150
f 24/32/151 23/31/152 43/55/153
f 25/35/154 24/32/155 43/56/156
f 26/37/157 25/35/158 43/57/159
f 27/39/160 26/37/161 43/58/162
f 23/41/163 27/39/164 43/59/165
f 38/50/166 39/49/167 44/60/168
f 39/49/169 40/51/170 44/60/171
f 40/51/172 41/52/173 44/60/174
f 41/52/175 42/53/176 44/60/177
f 42/53/178 38/54/179 44/60/180
