# This file uses centimeters as units for non-parametric coordinates.

mtllib Ijs-op-grond-2.mtl
g default
v -3.038887 0.039667 -18.515289
v -6.169197 -0.245584 -22.070938
v -10.293411 -0.245584 -20.698288
v -10.219269 -0.245584 -16.811417
v -5.541946 0.039667 -15.264740
v -4.156693 0.279960 -18.305038
v -6.452087 0.279960 -20.893524
v -9.263565 0.279960 -19.957794
v -9.213013 0.279960 -17.308121
v -5.863037 0.279960 -16.089142
v -4.555550 0.628889 -18.236664
v -6.460983 0.576979 -20.400986
v -8.696350 0.576979 -19.725235
v -8.822395 0.576979 -17.554169
v -6.009071 0.576979 -16.464142
v -5.817429 0.904701 -18.748566
v -6.639450 0.904701 -19.498688
v -8.041046 0.821719 -19.448151
v -8.273514 0.817272 -17.931107
v -6.685059 0.817272 -17.414429
v -7.182648 -0.714166 -18.692078
v -7.182648 0.996484 -18.692078
v -0.268948 0.007583 -22.223068
v -2.420536 -0.277667 -22.347122
v -3.288464 -0.277667 -20.449120
v -2.002768 -0.277667 -19.152031
v -0.010754 0.007583 -20.248390
v -0.556721 0.247876 -21.763702
v -2.128332 0.247876 -21.848274
v -2.719997 0.247876 -20.554405
v -1.843538 0.247876 -19.670181
v -0.380711 0.247876 -20.417564
v -0.661562 0.596806 -21.602043
v -1.971237 0.544895 -21.677559
v -2.463820 0.544895 -20.672043
v -1.799017 0.544895 -19.889435
v -0.548992 0.544895 -20.494522
v -1.229704 0.872617 -21.338463
v -1.735106 0.872617 -21.308563
v -2.165125 0.789635 -20.805092
v -1.746580 0.785188 -20.208153
v -1.072861 0.785188 -20.583405
v -1.646217 -0.746250 -20.845596
v -1.646217 0.964401 -20.845596
v -4.180237 0.026053 -23.919010
v -5.942795 -0.207286 -22.420601
v -5.586899 -0.207286 -20.665806
v -3.863892 -0.207286 -20.839016
v -2.895401 0.026053 -22.941540
v -4.155312 0.222617 -23.437542
v -5.439445 0.222617 -22.339466
v -5.196831 0.222617 -21.143223
v -4.022255 0.222617 -21.261303
v -3.279434 0.222617 -22.771198
v -4.149353 0.508046 -23.265499
v -5.222214 0.465582 -22.353409
v -5.059494 0.465582 -21.399822
v -4.107269 0.465582 -21.423298
v -3.454132 0.465582 -22.693714
v -4.452469 0.733664 -22.694836
v -4.834152 0.733664 -22.308002
v -4.897102 0.665783 -21.696575
v -4.240524 0.662146 -21.649807
v -3.915413 0.662146 -22.363537
v -4.510590 -0.590593 -22.099537
v -4.510590 0.808744 -22.099537
vt 0.151907 0.969027
vt 0.104975 0.862719
vt 0.145987 0.867467
vt 0.174067 0.946762
vt 0.164915 0.767053
vt 0.185772 0.802518
vt 0.264257 0.760667
vt 0.251501 0.798658
vt 0.329066 0.865743
vt 0.304316 0.868646
vt 0.294189 0.966039
vt 0.280188 0.937915
vt 0.165800 0.871835
vt 0.192177 0.935092
vt 0.193705 0.822568
vt 0.243903 0.816199
vt 0.285285 0.871373
vt 0.263773 0.924726
vt 0.194230 0.874785
vt 0.202572 0.900027
vt 0.201586 0.842390
vt 0.235210 0.834716
vt 0.255540 0.866834
vt 0.234086 0.900849
vt 0.046150 0.934765
vt 0.071925 0.774883
vt 0.207700 0.683628
vt 0.359387 0.769086
vt 0.401164 0.935609
vt 0.219571 0.866391
vt 0.151907 0.969027
vt 0.104975 0.862719
vt 0.145987 0.867467
vt 0.174067 0.946762
vt 0.164915 0.767053
vt 0.185772 0.802518
vt 0.264257 0.760667
vt 0.251501 0.798658
vt 0.329066 0.865743
vt 0.304316 0.868646
vt 0.294189 0.966039
vt 0.280188 0.937915
vt 0.165800 0.871835
vt 0.192177 0.935092
vt 0.193705 0.822568
vt 0.243903 0.816199
vt 0.285285 0.871373
vt 0.263773 0.924726
vt 0.194230 0.874785
vt 0.202572 0.900027
vt 0.201586 0.842390
vt 0.235210 0.834716
vt 0.255540 0.866834
vt 0.234086 0.900849
vt 0.046150 0.934765
vt 0.071925 0.774883
vt 0.207700 0.683628
vt 0.359387 0.769086
vt 0.401164 0.935609
vt 0.219571 0.866391
vt 0.151907 0.969027
vt 0.104975 0.862719
vt 0.145987 0.867467
vt 0.174067 0.946762
vt 0.164915 0.767053
vt 0.185772 0.802518
vt 0.264257 0.760667
vt 0.251501 0.798658
vt 0.329066 0.865743
vt 0.304316 0.868646
vt 0.294189 0.966039
vt 0.280188 0.937915
vt 0.165800 0.871835
vt 0.192177 0.935092
vt 0.193705 0.822568
vt 0.243903 0.816199
vt 0.285285 0.871373
vt 0.263773 0.924726
vt 0.194230 0.874785
vt 0.202572 0.900027
vt 0.201586 0.842390
vt 0.235210 0.834716
vt 0.255540 0.866834
vt 0.234086 0.900849
vt 0.046150 0.934765
vt 0.071925 0.774883
vt 0.207700 0.683628
vt 0.359387 0.769086
vt 0.401164 0.935609
vt 0.219571 0.866391
vn 0.248954 0.932090 -0.263118
vn 0.248954 0.932090 -0.263118
vn 0.248954 0.932090 -0.263118
vn 0.248954 0.932090 -0.263118
vn -0.143767 0.890361 -0.431959
vn -0.143767 0.890361 -0.431959
vn -0.143767 0.890361 -0.431959
vn -0.143767 0.890361 -0.431959
vn -0.459521 0.888124 0.008766
vn -0.459521 0.888124 0.008766
vn -0.459521 0.888124 0.008766
vn -0.459521 0.888124 0.008766
vn -0.177349 0.888553 0.423110
vn -0.177349 0.888552 0.423110
vn -0.177349 0.888553 0.423110
vn -0.177349 0.888553 0.423110
vn 0.239606 0.953177 0.184507
vn 0.239606 0.953177 0.184507
vn 0.239606 0.953177 0.184507
vn 0.239606 0.953177 0.184507
vn 0.512795 0.724142 -0.461150
vn 0.512795 0.724142 -0.461150
vn 0.512795 0.724142 -0.461150
vn 0.512795 0.724142 -0.461150
vn -0.172797 0.822970 -0.541167
vn -0.172797 0.822970 -0.541167
vn -0.172797 0.822970 -0.541167
vn -0.172797 0.822970 -0.541167
vn -0.527122 0.849750 -0.008255
vn -0.527122 0.849750 -0.008255
vn -0.527122 0.849750 -0.008255
vn -0.527122 0.849750 -0.008255
vn -0.233254 0.746959 0.622611
vn -0.233254 0.746959 0.622611
vn -0.233254 0.746959 0.622611
vn -0.233254 0.746959 0.622611
vn 0.562607 0.690439 0.454717
vn 0.562607 0.690439 0.454718
vn 0.562607 0.690439 0.454717
vn 0.562607 0.690439 0.454718
vn 0.299600 0.906813 -0.296530
vn 0.299601 0.906813 -0.296530
vn 0.299600 0.906813 -0.296530
vn 0.299600 0.906813 -0.296530
vn -0.100879 0.910446 -0.401137
vn -0.100879 0.910447 -0.401137
vn -0.100879 0.910447 -0.401137
vn -0.100879 0.910447 -0.401137
vn -0.375912 0.925978 -0.035425
vn -0.375912 0.925978 -0.035425
vn -0.375912 0.925978 -0.035425
vn -0.375912 0.925978 -0.035425
vn -0.127188 0.928659 0.348447
vn -0.127188 0.928659 0.348447
vn -0.127188 0.928659 0.348447
vn -0.127188 0.928659 0.348447
vn 0.145336 0.977569 0.152434
vn 0.145336 0.977569 0.152434
vn 0.145336 0.977569 0.152434
vn 0.145336 0.977569 0.152434
vn 0.181749 -0.979971 -0.081390
vn 0.181749 -0.979971 -0.081390
vn 0.181749 -0.979971 -0.081390
vn -0.050613 -0.987073 -0.152069
vn -0.050613 -0.987073 -0.152069
vn -0.050613 -0.987073 -0.152069
vn -0.150765 -0.988565 0.002876
vn -0.150765 -0.988566 0.002876
vn -0.150765 -0.988566 0.002876
vn -0.013608 -0.975178 0.221002
vn -0.013608 -0.975178 0.221002
vn -0.013608 -0.975178 0.221002
vn 0.171936 -0.976170 0.132398
vn 0.171936 -0.976170 0.132398
vn 0.171936 -0.976170 0.132398
vn 0.064023 0.995479 -0.070159
vn 0.064023 0.995479 -0.070159
vn 0.064023 0.995479 -0.070159
vn -0.063963 0.985803 -0.155248
vn -0.063963 0.985803 -0.155248
vn -0.063963 0.985803 -0.155248
vn -0.178679 0.983602 -0.024497
vn -0.178679 0.983602 -0.024497
vn -0.178679 0.983602 -0.024497
vn -0.051513 0.986035 0.158371
vn -0.051513 0.986035 0.158371
vn -0.051513 0.986035 0.158371
vn 0.071245 0.991231 0.111290
vn 0.071245 0.991231 0.111290
vn 0.071245 0.991231 0.111290
vn -0.024865 0.780975 -0.624067
vn -0.024865 0.780975 -0.624067
vn -0.024865 0.780975 -0.624067
vn -0.024865 0.780975 -0.624067
vn -0.675841 0.669124 -0.309051
vn -0.675841 0.669124 -0.309051
vn -0.675841 0.669124 -0.309051
vn -0.675841 0.669124 -0.309051
vn -0.525476 0.672741 0.520860
vn -0.525476 0.672741 0.520860
vn -0.525476 0.672741 0.520860
vn -0.525476 0.672741 0.520860
vn 0.299932 0.681566 0.667464
vn 0.299932 0.681566 0.667464
vn 0.299932 0.681566 0.667464
vn 0.299932 0.681566 0.667464
vn 0.566820 0.820501 -0.074113
vn 0.566820 0.820501 -0.074113
vn 0.566820 0.820501 -0.074113
vn 0.566820 0.820501 -0.074113
vn 0.041248 0.454506 -0.889788
vn 0.041248 0.454506 -0.889788
vn 0.041248 0.454506 -0.889788
vn 0.041248 0.454506 -0.889788
vn -0.752338 0.555100 -0.354756
vn -0.752338 0.555100 -0.354756
vn -0.752338 0.555100 -0.354756
vn -0.752338 0.555100 -0.354756
vn -0.585493 0.603406 0.541386
vn -0.585493 0.603406 0.541386
vn -0.585493 0.603406 0.541386
vn -0.585493 0.603406 0.541386
vn 0.392716 0.474612 0.787730
vn 0.392716 0.474612 0.787730
vn 0.392716 0.474612 0.787730
vn 0.392716 0.474612 0.787730
vn 0.911830 0.398501 -0.098811
vn 0.911830 0.398501 -0.098811
vn 0.911830 0.398501 -0.098811
vn 0.911830 0.398501 -0.098811
vn -0.003296 0.722652 -0.691204
vn -0.003296 0.722652 -0.691204
vn -0.003296 0.722652 -0.691204
vn -0.003296 0.722652 -0.691204
vn -0.614829 0.713179 -0.336691
vn -0.614829 0.713179 -0.336691
vn -0.614829 0.713179 -0.336691
vn -0.614829 0.713179 -0.336691
vn -0.516056 0.753313 0.407684
vn -0.516056 0.753313 0.407684
vn -0.516056 0.753313 0.407684
vn -0.516056 0.753313 0.407684
vn 0.290520 0.768500 0.570094
vn 0.290520 0.768500 0.570094
vn 0.290520 0.768500 0.570094
vn 0.290520 0.768500 0.570094
vn 0.428037 0.903744 0.005695
vn 0.428037 0.903744 0.005695
vn 0.428037 0.903744 0.005695
vn 0.428037 0.903744 0.005695
vn 0.142990 -0.921425 -0.361288
vn 0.142990 -0.921425 -0.361288
vn 0.142990 -0.921425 -0.361288
vn -0.302479 -0.943067 -0.138319
vn -0.302479 -0.943067 -0.138319
vn -0.302479 -0.943067 -0.138319
vn -0.219014 -0.951265 0.217090
vn -0.219014 -0.951265 0.217090
vn -0.219014 -0.951265 0.217090
vn 0.301079 -0.900890 0.312649
vn 0.301079 -0.900890 0.312649
vn 0.301079 -0.900890 0.312649
vn 0.434979 -0.898643 -0.056875
vn 0.434979 -0.898643 -0.056875
vn 0.434979 -0.898643 -0.056875
vn -0.011380 0.981260 -0.192351
vn -0.011380 0.981260 -0.192351
vn -0.011380 0.981260 -0.192351
vn -0.325376 0.937500 -0.123389
vn -0.325376 0.937500 -0.123389
vn -0.325376 0.937500 -0.123389
vn -0.296615 0.930503 0.214903
vn -0.296615 0.930503 0.214903
vn -0.296615 0.930503 0.214903
vn 0.161869 0.943049 0.290616
vn 0.161869 0.943049 0.290616
vn 0.161869 0.943049 0.290616
vn 0.275344 0.959831 0.053944
vn 0.275344 0.959831 0.053944
vn 0.275344 0.959831 0.053944
vn -0.442251 0.776313 -0.449168
vn -0.442251 0.776313 -0.449168
vn -0.442251 0.776313 -0.449168
vn -0.442251 0.776313 -0.449168
vn -0.655988 0.742953 0.133043
vn -0.655988 0.742953 0.133043
vn -0.655988 0.742953 0.133043
vn -0.655988 0.742953 0.133043
vn 0.070228 0.712075 0.698582
vn 0.070228 0.712075 0.698582
vn 0.070228 0.712075 0.698582
vn 0.070228 0.712075 0.698582
vn 0.636049 0.689793 0.345872
vn 0.636049 0.689793 0.345872
vn 0.636049 0.689793 0.345872
vn 0.636049 0.689793 0.345872
vn 0.285209 0.882106 -0.374893
vn 0.285209 0.882106 -0.374893
vn 0.285209 0.882106 -0.374893
vn 0.285209 0.882106 -0.374893
vn -0.584462 0.449083 -0.675817
vn -0.584463 0.449083 -0.675817
vn -0.584463 0.449083 -0.675816
vn -0.584462 0.449083 -0.675817
vn -0.759810 0.634166 0.143257
vn -0.759810 0.634166 0.143257
vn -0.759810 0.634166 0.143257
vn -0.759810 0.634166 0.143257
vn 0.050542 0.648697 0.759367
vn 0.050542 0.648697 0.759367
vn 0.050542 0.648697 0.759367
vn 0.050542 0.648697 0.759367
vn 0.781177 0.485723 0.392219
vn 0.781177 0.485723 0.392219
vn 0.781177 0.485723 0.392219
vn 0.781177 0.485723 0.392219
vn 0.546394 0.493905 -0.676396
vn 0.546394 0.493905 -0.676396
vn 0.546394 0.493905 -0.676396
vn 0.546394 0.493905 -0.676396
vn -0.475663 0.717258 -0.509202
vn -0.475662 0.717258 -0.509202
vn -0.475662 0.717258 -0.509202
vn -0.475662 0.717258 -0.509202
vn -0.626502 0.775938 0.073595
vn -0.626502 0.775938 0.073595
vn -0.626502 0.775937 0.073595
vn -0.626502 0.775938 0.073595
vn -0.006941 0.797000 0.603940
vn -0.006941 0.797000 0.603940
vn -0.006941 0.797000 0.603940
vn -0.006941 0.797000 0.603940
vn 0.563090 0.778367 0.277622
vn 0.563090 0.778367 0.277622
vn 0.563090 0.778367 0.277622
vn 0.563091 0.778367 0.277622
vn 0.252849 0.940669 -0.226294
vn 0.252849 0.940669 -0.226294
vn 0.252849 0.940669 -0.226294
vn 0.252849 0.940669 -0.226294
vn -0.170072 -0.923490 -0.343863
vn -0.170072 -0.923490 -0.343863
vn -0.170072 -0.923490 -0.343863
vn -0.269567 -0.961429 0.054672
vn -0.269567 -0.961429 0.054672
vn -0.269567 -0.961429 0.054672
vn 0.027914 -0.960267 0.277683
vn 0.027914 -0.960267 0.277683
vn 0.027914 -0.960267 0.277683
vn 0.390942 -0.917079 0.078303
vn 0.390942 -0.917079 0.078303
vn 0.390942 -0.917079 0.078303
vn 0.212179 -0.936587 -0.278899
vn 0.212179 -0.936587 -0.278899
vn 0.212179 -0.936587 -0.278899
vn -0.139126 0.980714 -0.137273
vn -0.139126 0.980714 -0.137273
vn -0.139126 0.980714 -0.137273
vn -0.272965 0.958829 0.078345
vn -0.272965 0.958829 0.078345
vn -0.272965 0.958828 0.078345
vn -0.017498 0.947473 0.319356
vn -0.017498 0.947473 0.319356
vn -0.017498 0.947473 0.319356
vn 0.292320 0.947005 0.133155
vn 0.292320 0.947005 0.133155
vn 0.292320 0.947005 0.133155
vn 0.194099 0.975446 -0.104075
vn 0.194099 0.975446 -0.104075
vn 0.194099 0.975446 -0.104075
s off
g polySurface991
usemtl lambert4SG
f 1/1/1 2/2/2 7/3/3 6/4/4
f 2/2/5 3/5/6 8/6/7 7/3/8
f 3/5/9 4/7/10 9/8/11 8/6/12
f 4/7/13 5/9/14 10/10/15 9/8/16
f 5/9/17 1/11/18 6/12/19 10/10/20
f 6/4/21 7/3/22 12/13/23 11/14/24
f 7/3/25 8/6/26 13/15/27 12/13/28
f 8/6/29 9/8/30 14/16/31 13/15/32
f 9/8/33 10/10/34 15/17/35 14/16/36
f 10/10/37 6/12/38 11/18/39 15/17/40
f 11/14/41 12/13/42 17/19/43 16/20/44
f 12/13/45 13/15/46 18/21/47 17/19/48
f 13/15/49 14/16/50 19/22/51 18/21/52
f 14/16/53 15/17/54 20/23/55 19/22/56
f 15/17/57 11/18/58 16/24/59 20/23/60
f 2/2/61 1/1/62 21/25/63
f 3/5/64 2/2/65 21/26/66
f 4/7/67 3/5/68 21/27/69
f 5/9/70 4/7/71 21/28/72
f 1/11/73 5/9/74 21/29/75
f 16/20/76 17/19/77 22/30/78
f 17/19/79 18/21/80 22/30/81
f 18/21/82 19/22/83 22/30/84
f 19/22/85 20/23/86 22/30/87
f 20/23/88 16/24/89 22/30/90
f 23/31/91 24/32/92 29/33/93 28/34/94
f 24/32/95 25/35/96 30/36/97 29/33/98
f 25/35/99 26/37/100 31/38/101 30/36/102
f 26/37/103 27/39/104 32/40/105 31/38/106
f 27/39/107 23/41/108 28/42/109 32/40/110
f 28/34/111 29/33/112 34/43/113 33/44/114
f 29/33/115 30/36/116 35/45/117 34/43/118
f 30/36/119 31/38/120 36/46/121 35/45/122
f 31/38/123 32/40/124 37/47/125 36/46/126
f 32/40/127 28/42/128 33/48/129 37/47/130
f 33/44/131 34/43/132 39/49/133 38/50/134
f 34/43/135 35/45/136 40/51/137 39/49/138
f 35/45/139 36/46/140 41/52/141 40/51/142
f 36/46/143 37/47/144 42/53/145 41/52/146
f 37/47/147 33/48/148 38/54/149 42/53/150
f 24/32/151 23/31/152 43/55/153
f 25/35/154 24/32/155 43/56/156
f 26/37/157 25/35/158 43/57/159
f 27/39/160 26/37/161 43/58/162
f 23/41/163 27/39/164 43/59/165
f 38/50/166 39/49/167 44/60/168
f 39/49/169 40/51/170 44/60/171
f 40/51/172 41/52/173 44/60/174
f 41/52/175 42/53/176 44/60/177
f 42/53/178 38/54/179 44/60/180
f 45/61/181 46/62/182 51/63/183 50/64/184
f 46/62/185 47/65/186 52/66/187 51/63/188
f 47/65/189 48/67/190 53/68/191 52/66/192
f 48/67/193 49/69/194 54/70/195 53/68/196
f 49/69/197 45/71/198 50/72/199 54/70/200
f 50/64/201 51/63/202 56/73/203 55/74/204
f 51/63/205 52/66/206 57/75/207 56/73/208
f 52/66/209 53/68/210 58/76/211 57/75/212
f 53/68/213 54/70/214 59/77/215 58/76/216
f 54/70/217 50/72/218 55/78/219 59/77/220
f 55/74/221 56/73/222 61/79/223 60/80/224
f 56/73/225 57/75/226 62/81/227 61/79/228
f 57/75/229 58/76/230 63/82/231 62/81/232
f 58/76/233 59/77/234 64/83/235 63/82/236
f 59/77/237 55/78/238 60/84/239 64/83/240
f 46/62/241 45/61/242 65/85/243
f 47/65/244 46/62/245 65/86/246
f 48/67/247 47/65/248 65/87/249
f 49/69/250 48/67/251 65/88/252
f 45/71/253 49/69/254 65/89/255
f 60/80/256 61/79/257 66/90/258
f 61/79/259 62/81/260 66/90/261
f 62/81/262 63/82/263 66/90/264
f 63/82/265 64/83/266 66/90/267
f 64/83/268 60/84/269 66/90/270
